%TF.GenerationSoftware,KiCad,Pcbnew,5.1.9+dfsg1-1+deb11u1*%
%TF.CreationDate,2023-10-17T21:29:52+02:00*%
%TF.ProjectId,pcb,7063622e-6b69-4636-9164-5f7063625858,rev?*%
%TF.SameCoordinates,Original*%
%TF.FileFunction,Soldermask,Bot*%
%TF.FilePolarity,Negative*%
%FSLAX46Y46*%
G04 Gerber Fmt 4.6, Leading zero omitted, Abs format (unit mm)*
G04 Created by KiCad (PCBNEW 5.1.9+dfsg1-1+deb11u1) date 2023-10-17 21:29:52*
%MOMM*%
%LPD*%
G01*
G04 APERTURE LIST*
%ADD10R,1.700000X1.700000*%
%ADD11O,1.700000X1.700000*%
%ADD12C,3.200000*%
%ADD13R,1.060000X0.650000*%
%ADD14O,1.000000X1.600000*%
%ADD15C,0.650000*%
%ADD16O,1.000000X2.100000*%
%ADD17R,0.300000X1.450000*%
%ADD18R,0.600000X1.450000*%
%ADD19R,0.650000X1.060000*%
%ADD20R,1.400000X1.200000*%
%ADD21R,1.200000X0.900000*%
%ADD22C,2.200000*%
%ADD23C,4.000000*%
%ADD24C,1.700000*%
G04 APERTURE END LIST*
D10*
%TO.C,J2*%
X19000000Y28500000D03*
D11*
X19000000Y31040000D03*
X19000000Y33580000D03*
%TD*%
D12*
%TO.C,REF\u002A\u002A*%
X-43000000Y-43000000D03*
%TD*%
%TO.C,REF\u002A\u002A*%
X43000000Y-43000000D03*
%TD*%
%TO.C,REF\u002A\u002A*%
X43000000Y43000000D03*
%TD*%
%TO.C,REF\u002A\u002A*%
X-43000000Y43000000D03*
%TD*%
D10*
%TO.C,J3*%
X-19000000Y15190000D03*
D11*
X-19000000Y17730000D03*
X-19000000Y20270000D03*
X-19000000Y22810000D03*
%TD*%
%TO.C,U1*%
G36*
G01*
X2825000Y16500000D02*
X2675000Y16500000D01*
G75*
G02*
X2600000Y16575000I0J75000D01*
G01*
X2600000Y17900000D01*
G75*
G02*
X2675000Y17975000I75000J0D01*
G01*
X2825000Y17975000D01*
G75*
G02*
X2900000Y17900000I0J-75000D01*
G01*
X2900000Y16575000D01*
G75*
G02*
X2825000Y16500000I-75000J0D01*
G01*
G37*
G36*
G01*
X2325000Y16500000D02*
X2175000Y16500000D01*
G75*
G02*
X2100000Y16575000I0J75000D01*
G01*
X2100000Y17900000D01*
G75*
G02*
X2175000Y17975000I75000J0D01*
G01*
X2325000Y17975000D01*
G75*
G02*
X2400000Y17900000I0J-75000D01*
G01*
X2400000Y16575000D01*
G75*
G02*
X2325000Y16500000I-75000J0D01*
G01*
G37*
G36*
G01*
X1825000Y16500000D02*
X1675000Y16500000D01*
G75*
G02*
X1600000Y16575000I0J75000D01*
G01*
X1600000Y17900000D01*
G75*
G02*
X1675000Y17975000I75000J0D01*
G01*
X1825000Y17975000D01*
G75*
G02*
X1900000Y17900000I0J-75000D01*
G01*
X1900000Y16575000D01*
G75*
G02*
X1825000Y16500000I-75000J0D01*
G01*
G37*
G36*
G01*
X1325000Y16500000D02*
X1175000Y16500000D01*
G75*
G02*
X1100000Y16575000I0J75000D01*
G01*
X1100000Y17900000D01*
G75*
G02*
X1175000Y17975000I75000J0D01*
G01*
X1325000Y17975000D01*
G75*
G02*
X1400000Y17900000I0J-75000D01*
G01*
X1400000Y16575000D01*
G75*
G02*
X1325000Y16500000I-75000J0D01*
G01*
G37*
G36*
G01*
X825000Y16500000D02*
X675000Y16500000D01*
G75*
G02*
X600000Y16575000I0J75000D01*
G01*
X600000Y17900000D01*
G75*
G02*
X675000Y17975000I75000J0D01*
G01*
X825000Y17975000D01*
G75*
G02*
X900000Y17900000I0J-75000D01*
G01*
X900000Y16575000D01*
G75*
G02*
X825000Y16500000I-75000J0D01*
G01*
G37*
G36*
G01*
X325000Y16500000D02*
X175000Y16500000D01*
G75*
G02*
X100000Y16575000I0J75000D01*
G01*
X100000Y17900000D01*
G75*
G02*
X175000Y17975000I75000J0D01*
G01*
X325000Y17975000D01*
G75*
G02*
X400000Y17900000I0J-75000D01*
G01*
X400000Y16575000D01*
G75*
G02*
X325000Y16500000I-75000J0D01*
G01*
G37*
G36*
G01*
X-175000Y16500000D02*
X-325000Y16500000D01*
G75*
G02*
X-400000Y16575000I0J75000D01*
G01*
X-400000Y17900000D01*
G75*
G02*
X-325000Y17975000I75000J0D01*
G01*
X-175000Y17975000D01*
G75*
G02*
X-100000Y17900000I0J-75000D01*
G01*
X-100000Y16575000D01*
G75*
G02*
X-175000Y16500000I-75000J0D01*
G01*
G37*
G36*
G01*
X-675000Y16500000D02*
X-825000Y16500000D01*
G75*
G02*
X-900000Y16575000I0J75000D01*
G01*
X-900000Y17900000D01*
G75*
G02*
X-825000Y17975000I75000J0D01*
G01*
X-675000Y17975000D01*
G75*
G02*
X-600000Y17900000I0J-75000D01*
G01*
X-600000Y16575000D01*
G75*
G02*
X-675000Y16500000I-75000J0D01*
G01*
G37*
G36*
G01*
X-1175000Y16500000D02*
X-1325000Y16500000D01*
G75*
G02*
X-1400000Y16575000I0J75000D01*
G01*
X-1400000Y17900000D01*
G75*
G02*
X-1325000Y17975000I75000J0D01*
G01*
X-1175000Y17975000D01*
G75*
G02*
X-1100000Y17900000I0J-75000D01*
G01*
X-1100000Y16575000D01*
G75*
G02*
X-1175000Y16500000I-75000J0D01*
G01*
G37*
G36*
G01*
X-1675000Y16500000D02*
X-1825000Y16500000D01*
G75*
G02*
X-1900000Y16575000I0J75000D01*
G01*
X-1900000Y17900000D01*
G75*
G02*
X-1825000Y17975000I75000J0D01*
G01*
X-1675000Y17975000D01*
G75*
G02*
X-1600000Y17900000I0J-75000D01*
G01*
X-1600000Y16575000D01*
G75*
G02*
X-1675000Y16500000I-75000J0D01*
G01*
G37*
G36*
G01*
X-2175000Y16500000D02*
X-2325000Y16500000D01*
G75*
G02*
X-2400000Y16575000I0J75000D01*
G01*
X-2400000Y17900000D01*
G75*
G02*
X-2325000Y17975000I75000J0D01*
G01*
X-2175000Y17975000D01*
G75*
G02*
X-2100000Y17900000I0J-75000D01*
G01*
X-2100000Y16575000D01*
G75*
G02*
X-2175000Y16500000I-75000J0D01*
G01*
G37*
G36*
G01*
X-2675000Y16500000D02*
X-2825000Y16500000D01*
G75*
G02*
X-2900000Y16575000I0J75000D01*
G01*
X-2900000Y17900000D01*
G75*
G02*
X-2825000Y17975000I75000J0D01*
G01*
X-2675000Y17975000D01*
G75*
G02*
X-2600000Y17900000I0J-75000D01*
G01*
X-2600000Y16575000D01*
G75*
G02*
X-2675000Y16500000I-75000J0D01*
G01*
G37*
G36*
G01*
X-3500000Y18500000D02*
X-4825000Y18500000D01*
G75*
G02*
X-4900000Y18575000I0J75000D01*
G01*
X-4900000Y18725000D01*
G75*
G02*
X-4825000Y18800000I75000J0D01*
G01*
X-3500000Y18800000D01*
G75*
G02*
X-3425000Y18725000I0J-75000D01*
G01*
X-3425000Y18575000D01*
G75*
G02*
X-3500000Y18500000I-75000J0D01*
G01*
G37*
G36*
G01*
X-3500000Y19000000D02*
X-4825000Y19000000D01*
G75*
G02*
X-4900000Y19075000I0J75000D01*
G01*
X-4900000Y19225000D01*
G75*
G02*
X-4825000Y19300000I75000J0D01*
G01*
X-3500000Y19300000D01*
G75*
G02*
X-3425000Y19225000I0J-75000D01*
G01*
X-3425000Y19075000D01*
G75*
G02*
X-3500000Y19000000I-75000J0D01*
G01*
G37*
G36*
G01*
X-3500000Y19500000D02*
X-4825000Y19500000D01*
G75*
G02*
X-4900000Y19575000I0J75000D01*
G01*
X-4900000Y19725000D01*
G75*
G02*
X-4825000Y19800000I75000J0D01*
G01*
X-3500000Y19800000D01*
G75*
G02*
X-3425000Y19725000I0J-75000D01*
G01*
X-3425000Y19575000D01*
G75*
G02*
X-3500000Y19500000I-75000J0D01*
G01*
G37*
G36*
G01*
X-3500000Y20000000D02*
X-4825000Y20000000D01*
G75*
G02*
X-4900000Y20075000I0J75000D01*
G01*
X-4900000Y20225000D01*
G75*
G02*
X-4825000Y20300000I75000J0D01*
G01*
X-3500000Y20300000D01*
G75*
G02*
X-3425000Y20225000I0J-75000D01*
G01*
X-3425000Y20075000D01*
G75*
G02*
X-3500000Y20000000I-75000J0D01*
G01*
G37*
G36*
G01*
X-3500000Y20500000D02*
X-4825000Y20500000D01*
G75*
G02*
X-4900000Y20575000I0J75000D01*
G01*
X-4900000Y20725000D01*
G75*
G02*
X-4825000Y20800000I75000J0D01*
G01*
X-3500000Y20800000D01*
G75*
G02*
X-3425000Y20725000I0J-75000D01*
G01*
X-3425000Y20575000D01*
G75*
G02*
X-3500000Y20500000I-75000J0D01*
G01*
G37*
G36*
G01*
X-3500000Y21000000D02*
X-4825000Y21000000D01*
G75*
G02*
X-4900000Y21075000I0J75000D01*
G01*
X-4900000Y21225000D01*
G75*
G02*
X-4825000Y21300000I75000J0D01*
G01*
X-3500000Y21300000D01*
G75*
G02*
X-3425000Y21225000I0J-75000D01*
G01*
X-3425000Y21075000D01*
G75*
G02*
X-3500000Y21000000I-75000J0D01*
G01*
G37*
G36*
G01*
X-3500000Y21500000D02*
X-4825000Y21500000D01*
G75*
G02*
X-4900000Y21575000I0J75000D01*
G01*
X-4900000Y21725000D01*
G75*
G02*
X-4825000Y21800000I75000J0D01*
G01*
X-3500000Y21800000D01*
G75*
G02*
X-3425000Y21725000I0J-75000D01*
G01*
X-3425000Y21575000D01*
G75*
G02*
X-3500000Y21500000I-75000J0D01*
G01*
G37*
G36*
G01*
X-3500000Y22000000D02*
X-4825000Y22000000D01*
G75*
G02*
X-4900000Y22075000I0J75000D01*
G01*
X-4900000Y22225000D01*
G75*
G02*
X-4825000Y22300000I75000J0D01*
G01*
X-3500000Y22300000D01*
G75*
G02*
X-3425000Y22225000I0J-75000D01*
G01*
X-3425000Y22075000D01*
G75*
G02*
X-3500000Y22000000I-75000J0D01*
G01*
G37*
G36*
G01*
X-3500000Y22500000D02*
X-4825000Y22500000D01*
G75*
G02*
X-4900000Y22575000I0J75000D01*
G01*
X-4900000Y22725000D01*
G75*
G02*
X-4825000Y22800000I75000J0D01*
G01*
X-3500000Y22800000D01*
G75*
G02*
X-3425000Y22725000I0J-75000D01*
G01*
X-3425000Y22575000D01*
G75*
G02*
X-3500000Y22500000I-75000J0D01*
G01*
G37*
G36*
G01*
X-3500000Y23000000D02*
X-4825000Y23000000D01*
G75*
G02*
X-4900000Y23075000I0J75000D01*
G01*
X-4900000Y23225000D01*
G75*
G02*
X-4825000Y23300000I75000J0D01*
G01*
X-3500000Y23300000D01*
G75*
G02*
X-3425000Y23225000I0J-75000D01*
G01*
X-3425000Y23075000D01*
G75*
G02*
X-3500000Y23000000I-75000J0D01*
G01*
G37*
G36*
G01*
X-3500000Y23500000D02*
X-4825000Y23500000D01*
G75*
G02*
X-4900000Y23575000I0J75000D01*
G01*
X-4900000Y23725000D01*
G75*
G02*
X-4825000Y23800000I75000J0D01*
G01*
X-3500000Y23800000D01*
G75*
G02*
X-3425000Y23725000I0J-75000D01*
G01*
X-3425000Y23575000D01*
G75*
G02*
X-3500000Y23500000I-75000J0D01*
G01*
G37*
G36*
G01*
X-3500000Y24000000D02*
X-4825000Y24000000D01*
G75*
G02*
X-4900000Y24075000I0J75000D01*
G01*
X-4900000Y24225000D01*
G75*
G02*
X-4825000Y24300000I75000J0D01*
G01*
X-3500000Y24300000D01*
G75*
G02*
X-3425000Y24225000I0J-75000D01*
G01*
X-3425000Y24075000D01*
G75*
G02*
X-3500000Y24000000I-75000J0D01*
G01*
G37*
G36*
G01*
X-2675000Y24825000D02*
X-2825000Y24825000D01*
G75*
G02*
X-2900000Y24900000I0J75000D01*
G01*
X-2900000Y26225000D01*
G75*
G02*
X-2825000Y26300000I75000J0D01*
G01*
X-2675000Y26300000D01*
G75*
G02*
X-2600000Y26225000I0J-75000D01*
G01*
X-2600000Y24900000D01*
G75*
G02*
X-2675000Y24825000I-75000J0D01*
G01*
G37*
G36*
G01*
X-2175000Y24825000D02*
X-2325000Y24825000D01*
G75*
G02*
X-2400000Y24900000I0J75000D01*
G01*
X-2400000Y26225000D01*
G75*
G02*
X-2325000Y26300000I75000J0D01*
G01*
X-2175000Y26300000D01*
G75*
G02*
X-2100000Y26225000I0J-75000D01*
G01*
X-2100000Y24900000D01*
G75*
G02*
X-2175000Y24825000I-75000J0D01*
G01*
G37*
G36*
G01*
X-1675000Y24825000D02*
X-1825000Y24825000D01*
G75*
G02*
X-1900000Y24900000I0J75000D01*
G01*
X-1900000Y26225000D01*
G75*
G02*
X-1825000Y26300000I75000J0D01*
G01*
X-1675000Y26300000D01*
G75*
G02*
X-1600000Y26225000I0J-75000D01*
G01*
X-1600000Y24900000D01*
G75*
G02*
X-1675000Y24825000I-75000J0D01*
G01*
G37*
G36*
G01*
X-1175000Y24825000D02*
X-1325000Y24825000D01*
G75*
G02*
X-1400000Y24900000I0J75000D01*
G01*
X-1400000Y26225000D01*
G75*
G02*
X-1325000Y26300000I75000J0D01*
G01*
X-1175000Y26300000D01*
G75*
G02*
X-1100000Y26225000I0J-75000D01*
G01*
X-1100000Y24900000D01*
G75*
G02*
X-1175000Y24825000I-75000J0D01*
G01*
G37*
G36*
G01*
X-675000Y24825000D02*
X-825000Y24825000D01*
G75*
G02*
X-900000Y24900000I0J75000D01*
G01*
X-900000Y26225000D01*
G75*
G02*
X-825000Y26300000I75000J0D01*
G01*
X-675000Y26300000D01*
G75*
G02*
X-600000Y26225000I0J-75000D01*
G01*
X-600000Y24900000D01*
G75*
G02*
X-675000Y24825000I-75000J0D01*
G01*
G37*
G36*
G01*
X-175000Y24825000D02*
X-325000Y24825000D01*
G75*
G02*
X-400000Y24900000I0J75000D01*
G01*
X-400000Y26225000D01*
G75*
G02*
X-325000Y26300000I75000J0D01*
G01*
X-175000Y26300000D01*
G75*
G02*
X-100000Y26225000I0J-75000D01*
G01*
X-100000Y24900000D01*
G75*
G02*
X-175000Y24825000I-75000J0D01*
G01*
G37*
G36*
G01*
X325000Y24825000D02*
X175000Y24825000D01*
G75*
G02*
X100000Y24900000I0J75000D01*
G01*
X100000Y26225000D01*
G75*
G02*
X175000Y26300000I75000J0D01*
G01*
X325000Y26300000D01*
G75*
G02*
X400000Y26225000I0J-75000D01*
G01*
X400000Y24900000D01*
G75*
G02*
X325000Y24825000I-75000J0D01*
G01*
G37*
G36*
G01*
X825000Y24825000D02*
X675000Y24825000D01*
G75*
G02*
X600000Y24900000I0J75000D01*
G01*
X600000Y26225000D01*
G75*
G02*
X675000Y26300000I75000J0D01*
G01*
X825000Y26300000D01*
G75*
G02*
X900000Y26225000I0J-75000D01*
G01*
X900000Y24900000D01*
G75*
G02*
X825000Y24825000I-75000J0D01*
G01*
G37*
G36*
G01*
X1325000Y24825000D02*
X1175000Y24825000D01*
G75*
G02*
X1100000Y24900000I0J75000D01*
G01*
X1100000Y26225000D01*
G75*
G02*
X1175000Y26300000I75000J0D01*
G01*
X1325000Y26300000D01*
G75*
G02*
X1400000Y26225000I0J-75000D01*
G01*
X1400000Y24900000D01*
G75*
G02*
X1325000Y24825000I-75000J0D01*
G01*
G37*
G36*
G01*
X1825000Y24825000D02*
X1675000Y24825000D01*
G75*
G02*
X1600000Y24900000I0J75000D01*
G01*
X1600000Y26225000D01*
G75*
G02*
X1675000Y26300000I75000J0D01*
G01*
X1825000Y26300000D01*
G75*
G02*
X1900000Y26225000I0J-75000D01*
G01*
X1900000Y24900000D01*
G75*
G02*
X1825000Y24825000I-75000J0D01*
G01*
G37*
G36*
G01*
X2325000Y24825000D02*
X2175000Y24825000D01*
G75*
G02*
X2100000Y24900000I0J75000D01*
G01*
X2100000Y26225000D01*
G75*
G02*
X2175000Y26300000I75000J0D01*
G01*
X2325000Y26300000D01*
G75*
G02*
X2400000Y26225000I0J-75000D01*
G01*
X2400000Y24900000D01*
G75*
G02*
X2325000Y24825000I-75000J0D01*
G01*
G37*
G36*
G01*
X2825000Y24825000D02*
X2675000Y24825000D01*
G75*
G02*
X2600000Y24900000I0J75000D01*
G01*
X2600000Y26225000D01*
G75*
G02*
X2675000Y26300000I75000J0D01*
G01*
X2825000Y26300000D01*
G75*
G02*
X2900000Y26225000I0J-75000D01*
G01*
X2900000Y24900000D01*
G75*
G02*
X2825000Y24825000I-75000J0D01*
G01*
G37*
G36*
G01*
X4825000Y24000000D02*
X3500000Y24000000D01*
G75*
G02*
X3425000Y24075000I0J75000D01*
G01*
X3425000Y24225000D01*
G75*
G02*
X3500000Y24300000I75000J0D01*
G01*
X4825000Y24300000D01*
G75*
G02*
X4900000Y24225000I0J-75000D01*
G01*
X4900000Y24075000D01*
G75*
G02*
X4825000Y24000000I-75000J0D01*
G01*
G37*
G36*
G01*
X4825000Y23500000D02*
X3500000Y23500000D01*
G75*
G02*
X3425000Y23575000I0J75000D01*
G01*
X3425000Y23725000D01*
G75*
G02*
X3500000Y23800000I75000J0D01*
G01*
X4825000Y23800000D01*
G75*
G02*
X4900000Y23725000I0J-75000D01*
G01*
X4900000Y23575000D01*
G75*
G02*
X4825000Y23500000I-75000J0D01*
G01*
G37*
G36*
G01*
X4825000Y23000000D02*
X3500000Y23000000D01*
G75*
G02*
X3425000Y23075000I0J75000D01*
G01*
X3425000Y23225000D01*
G75*
G02*
X3500000Y23300000I75000J0D01*
G01*
X4825000Y23300000D01*
G75*
G02*
X4900000Y23225000I0J-75000D01*
G01*
X4900000Y23075000D01*
G75*
G02*
X4825000Y23000000I-75000J0D01*
G01*
G37*
G36*
G01*
X4825000Y22500000D02*
X3500000Y22500000D01*
G75*
G02*
X3425000Y22575000I0J75000D01*
G01*
X3425000Y22725000D01*
G75*
G02*
X3500000Y22800000I75000J0D01*
G01*
X4825000Y22800000D01*
G75*
G02*
X4900000Y22725000I0J-75000D01*
G01*
X4900000Y22575000D01*
G75*
G02*
X4825000Y22500000I-75000J0D01*
G01*
G37*
G36*
G01*
X4825000Y22000000D02*
X3500000Y22000000D01*
G75*
G02*
X3425000Y22075000I0J75000D01*
G01*
X3425000Y22225000D01*
G75*
G02*
X3500000Y22300000I75000J0D01*
G01*
X4825000Y22300000D01*
G75*
G02*
X4900000Y22225000I0J-75000D01*
G01*
X4900000Y22075000D01*
G75*
G02*
X4825000Y22000000I-75000J0D01*
G01*
G37*
G36*
G01*
X4825000Y21500000D02*
X3500000Y21500000D01*
G75*
G02*
X3425000Y21575000I0J75000D01*
G01*
X3425000Y21725000D01*
G75*
G02*
X3500000Y21800000I75000J0D01*
G01*
X4825000Y21800000D01*
G75*
G02*
X4900000Y21725000I0J-75000D01*
G01*
X4900000Y21575000D01*
G75*
G02*
X4825000Y21500000I-75000J0D01*
G01*
G37*
G36*
G01*
X4825000Y21000000D02*
X3500000Y21000000D01*
G75*
G02*
X3425000Y21075000I0J75000D01*
G01*
X3425000Y21225000D01*
G75*
G02*
X3500000Y21300000I75000J0D01*
G01*
X4825000Y21300000D01*
G75*
G02*
X4900000Y21225000I0J-75000D01*
G01*
X4900000Y21075000D01*
G75*
G02*
X4825000Y21000000I-75000J0D01*
G01*
G37*
G36*
G01*
X4825000Y20500000D02*
X3500000Y20500000D01*
G75*
G02*
X3425000Y20575000I0J75000D01*
G01*
X3425000Y20725000D01*
G75*
G02*
X3500000Y20800000I75000J0D01*
G01*
X4825000Y20800000D01*
G75*
G02*
X4900000Y20725000I0J-75000D01*
G01*
X4900000Y20575000D01*
G75*
G02*
X4825000Y20500000I-75000J0D01*
G01*
G37*
G36*
G01*
X4825000Y20000000D02*
X3500000Y20000000D01*
G75*
G02*
X3425000Y20075000I0J75000D01*
G01*
X3425000Y20225000D01*
G75*
G02*
X3500000Y20300000I75000J0D01*
G01*
X4825000Y20300000D01*
G75*
G02*
X4900000Y20225000I0J-75000D01*
G01*
X4900000Y20075000D01*
G75*
G02*
X4825000Y20000000I-75000J0D01*
G01*
G37*
G36*
G01*
X4825000Y19500000D02*
X3500000Y19500000D01*
G75*
G02*
X3425000Y19575000I0J75000D01*
G01*
X3425000Y19725000D01*
G75*
G02*
X3500000Y19800000I75000J0D01*
G01*
X4825000Y19800000D01*
G75*
G02*
X4900000Y19725000I0J-75000D01*
G01*
X4900000Y19575000D01*
G75*
G02*
X4825000Y19500000I-75000J0D01*
G01*
G37*
G36*
G01*
X4825000Y19000000D02*
X3500000Y19000000D01*
G75*
G02*
X3425000Y19075000I0J75000D01*
G01*
X3425000Y19225000D01*
G75*
G02*
X3500000Y19300000I75000J0D01*
G01*
X4825000Y19300000D01*
G75*
G02*
X4900000Y19225000I0J-75000D01*
G01*
X4900000Y19075000D01*
G75*
G02*
X4825000Y19000000I-75000J0D01*
G01*
G37*
G36*
G01*
X4825000Y18500000D02*
X3500000Y18500000D01*
G75*
G02*
X3425000Y18575000I0J75000D01*
G01*
X3425000Y18725000D01*
G75*
G02*
X3500000Y18800000I75000J0D01*
G01*
X4825000Y18800000D01*
G75*
G02*
X4900000Y18725000I0J-75000D01*
G01*
X4900000Y18575000D01*
G75*
G02*
X4825000Y18500000I-75000J0D01*
G01*
G37*
%TD*%
D13*
%TO.C,U2*%
X4100000Y34750000D03*
X4100000Y35700000D03*
X4100000Y36650000D03*
X6300000Y36650000D03*
X6300000Y34750000D03*
%TD*%
D14*
%TO.C,J1*%
X4320000Y47450001D03*
D15*
X2890000Y43800001D03*
D14*
X-4320000Y47450001D03*
D15*
X-2890000Y43800001D03*
D16*
X-4320000Y43270001D03*
X4320000Y43270001D03*
D17*
X-250000Y42355001D03*
X1750000Y42355001D03*
X1250000Y42355001D03*
X750000Y42355001D03*
X250000Y42355001D03*
X-750000Y42355001D03*
X-1250000Y42355001D03*
X-1750000Y42355001D03*
D18*
X3250000Y42355001D03*
X2450000Y42355001D03*
X-2450000Y42355001D03*
X-3250000Y42355001D03*
X-3250000Y42355001D03*
X-2450000Y42355001D03*
X2450000Y42355001D03*
X3250000Y42355001D03*
%TD*%
%TO.C,R5*%
G36*
G01*
X1975000Y40575000D02*
X1975000Y40025000D01*
G75*
G02*
X1775000Y39825000I-200000J0D01*
G01*
X1375000Y39825000D01*
G75*
G02*
X1175000Y40025000I0J200000D01*
G01*
X1175000Y40575000D01*
G75*
G02*
X1375000Y40775000I200000J0D01*
G01*
X1775000Y40775000D01*
G75*
G02*
X1975000Y40575000I0J-200000D01*
G01*
G37*
G36*
G01*
X3625000Y40575000D02*
X3625000Y40025000D01*
G75*
G02*
X3425000Y39825000I-200000J0D01*
G01*
X3025000Y39825000D01*
G75*
G02*
X2825000Y40025000I0J200000D01*
G01*
X2825000Y40575000D01*
G75*
G02*
X3025000Y40775000I200000J0D01*
G01*
X3425000Y40775000D01*
G75*
G02*
X3625000Y40575000I0J-200000D01*
G01*
G37*
%TD*%
%TO.C,R4*%
G36*
G01*
X-3425000Y38175000D02*
X-3975000Y38175000D01*
G75*
G02*
X-4175000Y38375000I0J200000D01*
G01*
X-4175000Y38775000D01*
G75*
G02*
X-3975000Y38975000I200000J0D01*
G01*
X-3425000Y38975000D01*
G75*
G02*
X-3225000Y38775000I0J-200000D01*
G01*
X-3225000Y38375000D01*
G75*
G02*
X-3425000Y38175000I-200000J0D01*
G01*
G37*
G36*
G01*
X-3425000Y39825000D02*
X-3975000Y39825000D01*
G75*
G02*
X-4175000Y40025000I0J200000D01*
G01*
X-4175000Y40425000D01*
G75*
G02*
X-3975000Y40625000I200000J0D01*
G01*
X-3425000Y40625000D01*
G75*
G02*
X-3225000Y40425000I0J-200000D01*
G01*
X-3225000Y40025000D01*
G75*
G02*
X-3425000Y39825000I-200000J0D01*
G01*
G37*
%TD*%
%TO.C,R6*%
G36*
G01*
X-275000Y36825000D02*
X275000Y36825000D01*
G75*
G02*
X475000Y36625000I0J-200000D01*
G01*
X475000Y36225000D01*
G75*
G02*
X275000Y36025000I-200000J0D01*
G01*
X-275000Y36025000D01*
G75*
G02*
X-475000Y36225000I0J200000D01*
G01*
X-475000Y36625000D01*
G75*
G02*
X-275000Y36825000I200000J0D01*
G01*
G37*
G36*
G01*
X-275000Y35175000D02*
X275000Y35175000D01*
G75*
G02*
X475000Y34975000I0J-200000D01*
G01*
X475000Y34575000D01*
G75*
G02*
X275000Y34375000I-200000J0D01*
G01*
X-275000Y34375000D01*
G75*
G02*
X-475000Y34575000I0J200000D01*
G01*
X-475000Y34975000D01*
G75*
G02*
X-275000Y35175000I200000J0D01*
G01*
G37*
%TD*%
%TO.C,R7*%
G36*
G01*
X-2575000Y35175000D02*
X-2025000Y35175000D01*
G75*
G02*
X-1825000Y34975000I0J-200000D01*
G01*
X-1825000Y34575000D01*
G75*
G02*
X-2025000Y34375000I-200000J0D01*
G01*
X-2575000Y34375000D01*
G75*
G02*
X-2775000Y34575000I0J200000D01*
G01*
X-2775000Y34975000D01*
G75*
G02*
X-2575000Y35175000I200000J0D01*
G01*
G37*
G36*
G01*
X-2575000Y36825000D02*
X-2025000Y36825000D01*
G75*
G02*
X-1825000Y36625000I0J-200000D01*
G01*
X-1825000Y36225000D01*
G75*
G02*
X-2025000Y36025000I-200000J0D01*
G01*
X-2575000Y36025000D01*
G75*
G02*
X-2775000Y36225000I0J200000D01*
G01*
X-2775000Y36625000D01*
G75*
G02*
X-2575000Y36825000I200000J0D01*
G01*
G37*
%TD*%
%TO.C,R8*%
G36*
G01*
X1225000Y35175000D02*
X1775000Y35175000D01*
G75*
G02*
X1975000Y34975000I0J-200000D01*
G01*
X1975000Y34575000D01*
G75*
G02*
X1775000Y34375000I-200000J0D01*
G01*
X1225000Y34375000D01*
G75*
G02*
X1025000Y34575000I0J200000D01*
G01*
X1025000Y34975000D01*
G75*
G02*
X1225000Y35175000I200000J0D01*
G01*
G37*
G36*
G01*
X1225000Y36825000D02*
X1775000Y36825000D01*
G75*
G02*
X1975000Y36625000I0J-200000D01*
G01*
X1975000Y36225000D01*
G75*
G02*
X1775000Y36025000I-200000J0D01*
G01*
X1225000Y36025000D01*
G75*
G02*
X1025000Y36225000I0J200000D01*
G01*
X1025000Y36625000D01*
G75*
G02*
X1225000Y36825000I200000J0D01*
G01*
G37*
%TD*%
D19*
%TO.C,U3*%
X-50000Y37900000D03*
X-1000000Y37900000D03*
X-1950000Y37900000D03*
X-1950000Y40100000D03*
X-50000Y40100000D03*
X-1000000Y40100000D03*
%TD*%
%TO.C,C1*%
G36*
G01*
X5750000Y38175000D02*
X5250000Y38175000D01*
G75*
G02*
X5025000Y38400000I0J225000D01*
G01*
X5025000Y38850000D01*
G75*
G02*
X5250000Y39075000I225000J0D01*
G01*
X5750000Y39075000D01*
G75*
G02*
X5975000Y38850000I0J-225000D01*
G01*
X5975000Y38400000D01*
G75*
G02*
X5750000Y38175000I-225000J0D01*
G01*
G37*
G36*
G01*
X5750000Y39725000D02*
X5250000Y39725000D01*
G75*
G02*
X5025000Y39950000I0J225000D01*
G01*
X5025000Y40400000D01*
G75*
G02*
X5250000Y40625000I225000J0D01*
G01*
X5750000Y40625000D01*
G75*
G02*
X5975000Y40400000I0J-225000D01*
G01*
X5975000Y39950000D01*
G75*
G02*
X5750000Y39725000I-225000J0D01*
G01*
G37*
%TD*%
%TO.C,C3*%
G36*
G01*
X4825000Y33250000D02*
X4825000Y32750000D01*
G75*
G02*
X4600000Y32525000I-225000J0D01*
G01*
X4150000Y32525000D01*
G75*
G02*
X3925000Y32750000I0J225000D01*
G01*
X3925000Y33250000D01*
G75*
G02*
X4150000Y33475000I225000J0D01*
G01*
X4600000Y33475000D01*
G75*
G02*
X4825000Y33250000I0J-225000D01*
G01*
G37*
G36*
G01*
X3275000Y33250000D02*
X3275000Y32750000D01*
G75*
G02*
X3050000Y32525000I-225000J0D01*
G01*
X2600000Y32525000D01*
G75*
G02*
X2375000Y32750000I0J225000D01*
G01*
X2375000Y33250000D01*
G75*
G02*
X2600000Y33475000I225000J0D01*
G01*
X3050000Y33475000D01*
G75*
G02*
X3275000Y33250000I0J-225000D01*
G01*
G37*
%TD*%
%TO.C,FB1*%
G36*
G01*
X1275000Y38225000D02*
X1275000Y38775000D01*
G75*
G02*
X1475000Y38975000I200000J0D01*
G01*
X1875000Y38975000D01*
G75*
G02*
X2075000Y38775000I0J-200000D01*
G01*
X2075000Y38225000D01*
G75*
G02*
X1875000Y38025000I-200000J0D01*
G01*
X1475000Y38025000D01*
G75*
G02*
X1275000Y38225000I0J200000D01*
G01*
G37*
G36*
G01*
X2925000Y38225000D02*
X2925000Y38775000D01*
G75*
G02*
X3125000Y38975000I200000J0D01*
G01*
X3525000Y38975000D01*
G75*
G02*
X3725000Y38775000I0J-200000D01*
G01*
X3725000Y38225000D01*
G75*
G02*
X3525000Y38025000I-200000J0D01*
G01*
X3125000Y38025000D01*
G75*
G02*
X2925000Y38225000I0J200000D01*
G01*
G37*
%TD*%
%TO.C,C4*%
G36*
G01*
X3250000Y13075000D02*
X2750000Y13075000D01*
G75*
G02*
X2525000Y13300000I0J225000D01*
G01*
X2525000Y13750000D01*
G75*
G02*
X2750000Y13975000I225000J0D01*
G01*
X3250000Y13975000D01*
G75*
G02*
X3475000Y13750000I0J-225000D01*
G01*
X3475000Y13300000D01*
G75*
G02*
X3250000Y13075000I-225000J0D01*
G01*
G37*
G36*
G01*
X3250000Y14625000D02*
X2750000Y14625000D01*
G75*
G02*
X2525000Y14850000I0J225000D01*
G01*
X2525000Y15300000D01*
G75*
G02*
X2750000Y15525000I225000J0D01*
G01*
X3250000Y15525000D01*
G75*
G02*
X3475000Y15300000I0J-225000D01*
G01*
X3475000Y14850000D01*
G75*
G02*
X3250000Y14625000I-225000J0D01*
G01*
G37*
%TD*%
%TO.C,C6*%
G36*
G01*
X-3250000Y13974999D02*
X-2750000Y13974999D01*
G75*
G02*
X-2525000Y13749999I0J-225000D01*
G01*
X-2525000Y13299999D01*
G75*
G02*
X-2750000Y13074999I-225000J0D01*
G01*
X-3250000Y13074999D01*
G75*
G02*
X-3475000Y13299999I0J225000D01*
G01*
X-3475000Y13749999D01*
G75*
G02*
X-3250000Y13974999I225000J0D01*
G01*
G37*
G36*
G01*
X-3250000Y15524999D02*
X-2750000Y15524999D01*
G75*
G02*
X-2525000Y15299999I0J-225000D01*
G01*
X-2525000Y14849999D01*
G75*
G02*
X-2750000Y14624999I-225000J0D01*
G01*
X-3250000Y14624999D01*
G75*
G02*
X-3475000Y14849999I0J225000D01*
G01*
X-3475000Y15299999D01*
G75*
G02*
X-3250000Y15524999I225000J0D01*
G01*
G37*
%TD*%
D20*
%TO.C,Y1*%
X1100000Y13450000D03*
X-1100000Y13450000D03*
X-1100000Y15150000D03*
X1100000Y15150000D03*
%TD*%
%TO.C,C8*%
G36*
G01*
X6425000Y25450000D02*
X6425000Y25950000D01*
G75*
G02*
X6650000Y26175000I225000J0D01*
G01*
X7100000Y26175000D01*
G75*
G02*
X7325000Y25950000I0J-225000D01*
G01*
X7325000Y25450000D01*
G75*
G02*
X7100000Y25225000I-225000J0D01*
G01*
X6650000Y25225000D01*
G75*
G02*
X6425000Y25450000I0J225000D01*
G01*
G37*
G36*
G01*
X4875000Y25450000D02*
X4875000Y25950000D01*
G75*
G02*
X5100000Y26175000I225000J0D01*
G01*
X5550000Y26175000D01*
G75*
G02*
X5775000Y25950000I0J-225000D01*
G01*
X5775000Y25450000D01*
G75*
G02*
X5550000Y25225000I-225000J0D01*
G01*
X5100000Y25225000D01*
G75*
G02*
X4875000Y25450000I0J225000D01*
G01*
G37*
%TD*%
%TO.C,C9*%
G36*
G01*
X-3875000Y26150000D02*
X-3875000Y25650000D01*
G75*
G02*
X-4100000Y25425000I-225000J0D01*
G01*
X-4550000Y25425000D01*
G75*
G02*
X-4775000Y25650000I0J225000D01*
G01*
X-4775000Y26150000D01*
G75*
G02*
X-4550000Y26375000I225000J0D01*
G01*
X-4100000Y26375000D01*
G75*
G02*
X-3875000Y26150000I0J-225000D01*
G01*
G37*
G36*
G01*
X-5425000Y26150000D02*
X-5425000Y25650000D01*
G75*
G02*
X-5650000Y25425000I-225000J0D01*
G01*
X-6100000Y25425000D01*
G75*
G02*
X-6325000Y25650000I0J225000D01*
G01*
X-6325000Y26150000D01*
G75*
G02*
X-6100000Y26375000I225000J0D01*
G01*
X-5650000Y26375000D01*
G75*
G02*
X-5425000Y26150000I0J-225000D01*
G01*
G37*
%TD*%
%TO.C,C10*%
G36*
G01*
X5925000Y15950000D02*
X5925000Y16450000D01*
G75*
G02*
X6150000Y16675000I225000J0D01*
G01*
X6600000Y16675000D01*
G75*
G02*
X6825000Y16450000I0J-225000D01*
G01*
X6825000Y15950000D01*
G75*
G02*
X6600000Y15725000I-225000J0D01*
G01*
X6150000Y15725000D01*
G75*
G02*
X5925000Y15950000I0J225000D01*
G01*
G37*
G36*
G01*
X4375000Y15950000D02*
X4375000Y16450000D01*
G75*
G02*
X4600000Y16675000I225000J0D01*
G01*
X5050000Y16675000D01*
G75*
G02*
X5275000Y16450000I0J-225000D01*
G01*
X5275000Y15950000D01*
G75*
G02*
X5050000Y15725000I-225000J0D01*
G01*
X4600000Y15725000D01*
G75*
G02*
X4375000Y15950000I0J225000D01*
G01*
G37*
%TD*%
%TO.C,R1*%
G36*
G01*
X6275000Y18295000D02*
X5725000Y18295000D01*
G75*
G02*
X5525000Y18495000I0J200000D01*
G01*
X5525000Y18895000D01*
G75*
G02*
X5725000Y19095000I200000J0D01*
G01*
X6275000Y19095000D01*
G75*
G02*
X6475000Y18895000I0J-200000D01*
G01*
X6475000Y18495000D01*
G75*
G02*
X6275000Y18295000I-200000J0D01*
G01*
G37*
G36*
G01*
X6275000Y19945000D02*
X5725000Y19945000D01*
G75*
G02*
X5525000Y20145000I0J200000D01*
G01*
X5525000Y20545000D01*
G75*
G02*
X5725000Y20745000I200000J0D01*
G01*
X6275000Y20745000D01*
G75*
G02*
X6475000Y20545000I0J-200000D01*
G01*
X6475000Y20145000D01*
G75*
G02*
X6275000Y19945000I-200000J0D01*
G01*
G37*
%TD*%
D21*
%TO.C,D5*%
X-25360000Y26930000D03*
X-25360000Y23630000D03*
%TD*%
%TO.C,D6*%
X-25360000Y7930000D03*
X-25360000Y4630000D03*
%TD*%
%TO.C,D7*%
X-25360000Y-14370000D03*
X-25360000Y-11070000D03*
%TD*%
%TO.C,D8*%
X-25360000Y-33370000D03*
X-25360000Y-30070000D03*
%TD*%
%TO.C,D9*%
X-9000000Y21350000D03*
X-9000000Y24650000D03*
%TD*%
%TO.C,D10*%
X-6360000Y4630000D03*
X-6360000Y7930000D03*
%TD*%
%TO.C,D11*%
X-6360000Y-14370000D03*
X-6360000Y-11070000D03*
%TD*%
%TO.C,D12*%
X-6360000Y-30070000D03*
X-6360000Y-33370000D03*
%TD*%
%TO.C,D13*%
X12640000Y26930000D03*
X12640000Y23630000D03*
%TD*%
%TO.C,D14*%
X12640000Y7930000D03*
X12640000Y4630000D03*
%TD*%
%TO.C,D15*%
X12640000Y-14370000D03*
X12640000Y-11070000D03*
%TD*%
%TO.C,D16*%
X12640000Y-33370000D03*
X12640000Y-30070000D03*
%TD*%
%TO.C,D17*%
X31640000Y26930000D03*
X31640000Y23630000D03*
%TD*%
%TO.C,D18*%
X31640000Y4630000D03*
X31640000Y7930000D03*
%TD*%
%TO.C,D19*%
X31640000Y-11070000D03*
X31640000Y-14370000D03*
%TD*%
%TO.C,D20*%
X31640000Y-30070000D03*
X31640000Y-33370000D03*
%TD*%
D22*
%TO.C,SW2*%
X-25960000Y33580000D03*
X-32310000Y31040000D03*
D23*
X-28500000Y28500000D03*
D24*
X-33580000Y28500000D03*
X-23420000Y28500000D03*
%TD*%
D22*
%TO.C,SW3*%
X-25960000Y14580000D03*
X-32310000Y12040000D03*
D23*
X-28500000Y9500000D03*
D24*
X-33580000Y9500000D03*
X-23420000Y9500000D03*
%TD*%
%TO.C,SW4*%
X-23420000Y-9500000D03*
X-33580000Y-9500000D03*
D23*
X-28500000Y-9500000D03*
D22*
X-32310000Y-6960000D03*
X-25960000Y-4420000D03*
%TD*%
D24*
%TO.C,SW5*%
X-23420000Y-28500000D03*
X-33580000Y-28500000D03*
D23*
X-28500000Y-28500000D03*
D22*
X-32310000Y-25960000D03*
X-25960000Y-23420000D03*
%TD*%
%TO.C,SW6*%
X-6960000Y33580000D03*
X-13310000Y31040000D03*
D23*
X-9500000Y28500000D03*
D24*
X-14580000Y28500000D03*
X-4420000Y28500000D03*
%TD*%
D22*
%TO.C,SW7*%
X-6960000Y14580000D03*
X-13310000Y12040000D03*
D23*
X-9500000Y9500000D03*
D24*
X-14580000Y9500000D03*
X-4420000Y9500000D03*
%TD*%
%TO.C,SW8*%
X-4420000Y-9500000D03*
X-14580000Y-9500000D03*
D23*
X-9500000Y-9500000D03*
D22*
X-13310000Y-6960000D03*
X-6960000Y-4420000D03*
%TD*%
D24*
%TO.C,SW9*%
X-4420000Y-28500000D03*
X-14580000Y-28500000D03*
D23*
X-9500000Y-28500000D03*
D22*
X-13310000Y-25960000D03*
X-6960000Y-23420000D03*
%TD*%
D24*
%TO.C,SW10*%
X14580000Y28500000D03*
X4420000Y28500000D03*
D23*
X9500000Y28500000D03*
D22*
X5690000Y31040000D03*
X12040000Y33580000D03*
%TD*%
%TO.C,SW11*%
X12040000Y14580000D03*
X5690000Y12040000D03*
D23*
X9500000Y9500000D03*
D24*
X4420000Y9500000D03*
X14580000Y9500000D03*
%TD*%
%TO.C,SW12*%
X14580000Y-9500000D03*
X4420000Y-9500000D03*
D23*
X9500000Y-9500000D03*
D22*
X5690000Y-6960000D03*
X12040000Y-4420000D03*
%TD*%
%TO.C,SW13*%
X12040000Y-23420000D03*
X5690000Y-25960000D03*
D23*
X9500000Y-28500000D03*
D24*
X4420000Y-28500000D03*
X14580000Y-28500000D03*
%TD*%
D22*
%TO.C,SW14*%
X31040000Y33580000D03*
X24690000Y31040000D03*
D23*
X28500000Y28500000D03*
D24*
X23420000Y28500000D03*
X33580000Y28500000D03*
%TD*%
%TO.C,SW15*%
X33580000Y9500000D03*
X23420000Y9500000D03*
D23*
X28500000Y9500000D03*
D22*
X24690000Y12040000D03*
X31040000Y14580000D03*
%TD*%
D24*
%TO.C,SW16*%
X33580000Y-9500000D03*
X23420000Y-9500000D03*
D23*
X28500000Y-9500000D03*
D22*
X24690000Y-6960000D03*
X31040000Y-4420000D03*
%TD*%
%TO.C,SW17*%
X31040000Y-23420000D03*
X24690000Y-25960000D03*
D23*
X28500000Y-28500000D03*
D24*
X23420000Y-28500000D03*
X33580000Y-28500000D03*
%TD*%
M02*
