%TF.GenerationSoftware,KiCad,Pcbnew,5.1.9+dfsg1-1+deb11u1*%
%TF.CreationDate,2023-10-17T21:29:52+02:00*%
%TF.ProjectId,pcb,7063622e-6b69-4636-9164-5f7063625858,rev?*%
%TF.SameCoordinates,Original*%
%TF.FileFunction,Soldermask,Top*%
%TF.FilePolarity,Negative*%
%FSLAX46Y46*%
G04 Gerber Fmt 4.6, Leading zero omitted, Abs format (unit mm)*
G04 Created by KiCad (PCBNEW 5.1.9+dfsg1-1+deb11u1) date 2023-10-17 21:29:52*
%MOMM*%
%LPD*%
G01*
G04 APERTURE LIST*
%ADD10R,1.700000X1.700000*%
%ADD11O,1.700000X1.700000*%
%ADD12C,3.200000*%
%ADD13O,1.000000X1.600000*%
%ADD14C,0.650000*%
%ADD15O,1.000000X2.100000*%
%ADD16C,2.200000*%
%ADD17C,4.000000*%
%ADD18C,1.700000*%
%ADD19R,0.450000X1.300000*%
%ADD20R,1.300000X0.450000*%
G04 APERTURE END LIST*
D10*
%TO.C,J2*%
X19000000Y28500000D03*
D11*
X19000000Y31040000D03*
X19000000Y33580000D03*
%TD*%
D12*
%TO.C,REF\u002A\u002A*%
X-43000000Y-43000000D03*
%TD*%
%TO.C,REF\u002A\u002A*%
X43000000Y-43000000D03*
%TD*%
%TO.C,REF\u002A\u002A*%
X43000000Y43000000D03*
%TD*%
%TO.C,REF\u002A\u002A*%
X-43000000Y43000000D03*
%TD*%
D10*
%TO.C,J3*%
X-19000000Y15190000D03*
D11*
X-19000000Y17730000D03*
X-19000000Y20270000D03*
X-19000000Y22810000D03*
%TD*%
D13*
%TO.C,J1*%
X4320000Y47450001D03*
D14*
X2890000Y43800001D03*
D13*
X-4320000Y47450001D03*
D14*
X-2890000Y43800001D03*
D15*
X-4320000Y43270001D03*
X4320000Y43270001D03*
%TD*%
D16*
%TO.C,SW2*%
X-25960000Y33580000D03*
X-32310000Y31040000D03*
D17*
X-28500000Y28500000D03*
D18*
X-33580000Y28500000D03*
X-23420000Y28500000D03*
%TD*%
D16*
%TO.C,SW3*%
X-25960000Y14580000D03*
X-32310000Y12040000D03*
D17*
X-28500000Y9500000D03*
D18*
X-33580000Y9500000D03*
X-23420000Y9500000D03*
%TD*%
%TO.C,SW4*%
X-23420000Y-9500000D03*
X-33580000Y-9500000D03*
D17*
X-28500000Y-9500000D03*
D16*
X-32310000Y-6960000D03*
X-25960000Y-4420000D03*
%TD*%
D18*
%TO.C,SW5*%
X-23420000Y-28500000D03*
X-33580000Y-28500000D03*
D17*
X-28500000Y-28500000D03*
D16*
X-32310000Y-25960000D03*
X-25960000Y-23420000D03*
%TD*%
%TO.C,SW6*%
X-6960000Y33580000D03*
X-13310000Y31040000D03*
D17*
X-9500000Y28500000D03*
D18*
X-14580000Y28500000D03*
X-4420000Y28500000D03*
%TD*%
D16*
%TO.C,SW7*%
X-6960000Y14580000D03*
X-13310000Y12040000D03*
D17*
X-9500000Y9500000D03*
D18*
X-14580000Y9500000D03*
X-4420000Y9500000D03*
%TD*%
%TO.C,SW8*%
X-4420000Y-9500000D03*
X-14580000Y-9500000D03*
D17*
X-9500000Y-9500000D03*
D16*
X-13310000Y-6960000D03*
X-6960000Y-4420000D03*
%TD*%
D18*
%TO.C,SW9*%
X-4420000Y-28500000D03*
X-14580000Y-28500000D03*
D17*
X-9500000Y-28500000D03*
D16*
X-13310000Y-25960000D03*
X-6960000Y-23420000D03*
%TD*%
D18*
%TO.C,SW10*%
X14580000Y28500000D03*
X4420000Y28500000D03*
D17*
X9500000Y28500000D03*
D16*
X5690000Y31040000D03*
X12040000Y33580000D03*
%TD*%
%TO.C,SW11*%
X12040000Y14580000D03*
X5690000Y12040000D03*
D17*
X9500000Y9500000D03*
D18*
X4420000Y9500000D03*
X14580000Y9500000D03*
%TD*%
%TO.C,SW12*%
X14580000Y-9500000D03*
X4420000Y-9500000D03*
D17*
X9500000Y-9500000D03*
D16*
X5690000Y-6960000D03*
X12040000Y-4420000D03*
%TD*%
%TO.C,SW13*%
X12040000Y-23420000D03*
X5690000Y-25960000D03*
D17*
X9500000Y-28500000D03*
D18*
X4420000Y-28500000D03*
X14580000Y-28500000D03*
%TD*%
D16*
%TO.C,SW14*%
X31040000Y33580000D03*
X24690000Y31040000D03*
D17*
X28500000Y28500000D03*
D18*
X23420000Y28500000D03*
X33580000Y28500000D03*
%TD*%
%TO.C,SW15*%
X33580000Y9500000D03*
X23420000Y9500000D03*
D17*
X28500000Y9500000D03*
D16*
X24690000Y12040000D03*
X31040000Y14580000D03*
%TD*%
D18*
%TO.C,SW16*%
X33580000Y-9500000D03*
X23420000Y-9500000D03*
D17*
X28500000Y-9500000D03*
D16*
X24690000Y-6960000D03*
X31040000Y-4420000D03*
%TD*%
%TO.C,SW17*%
X31040000Y-23420000D03*
X24690000Y-25960000D03*
D17*
X28500000Y-28500000D03*
D18*
X23420000Y-28500000D03*
X33580000Y-28500000D03*
%TD*%
D19*
%TO.C,D1*%
X-9925000Y42500000D03*
X-8225000Y42500000D03*
X-10775000Y42500000D03*
X-9075000Y42500000D03*
%TD*%
%TO.C,C2*%
G36*
G01*
X40250000Y-9175000D02*
X39750000Y-9175000D01*
G75*
G02*
X39525000Y-8950000I0J225000D01*
G01*
X39525000Y-8500000D01*
G75*
G02*
X39750000Y-8275000I225000J0D01*
G01*
X40250000Y-8275000D01*
G75*
G02*
X40475000Y-8500000I0J-225000D01*
G01*
X40475000Y-8950000D01*
G75*
G02*
X40250000Y-9175000I-225000J0D01*
G01*
G37*
G36*
G01*
X40250000Y-10725000D02*
X39750000Y-10725000D01*
G75*
G02*
X39525000Y-10500000I0J225000D01*
G01*
X39525000Y-10050000D01*
G75*
G02*
X39750000Y-9825000I225000J0D01*
G01*
X40250000Y-9825000D01*
G75*
G02*
X40475000Y-10050000I0J-225000D01*
G01*
X40475000Y-10500000D01*
G75*
G02*
X40250000Y-10725000I-225000J0D01*
G01*
G37*
%TD*%
%TO.C,C5*%
G36*
G01*
X-8275000Y40250000D02*
X-8275000Y39750000D01*
G75*
G02*
X-8500000Y39525000I-225000J0D01*
G01*
X-8950000Y39525000D01*
G75*
G02*
X-9175000Y39750000I0J225000D01*
G01*
X-9175000Y40250000D01*
G75*
G02*
X-8950000Y40475000I225000J0D01*
G01*
X-8500000Y40475000D01*
G75*
G02*
X-8275000Y40250000I0J-225000D01*
G01*
G37*
G36*
G01*
X-9825000Y40250000D02*
X-9825000Y39750000D01*
G75*
G02*
X-10050000Y39525000I-225000J0D01*
G01*
X-10500000Y39525000D01*
G75*
G02*
X-10725000Y39750000I0J225000D01*
G01*
X-10725000Y40250000D01*
G75*
G02*
X-10500000Y40475000I225000J0D01*
G01*
X-10050000Y40475000D01*
G75*
G02*
X-9825000Y40250000I0J-225000D01*
G01*
G37*
%TD*%
%TO.C,C7*%
G36*
G01*
X9825000Y-40250000D02*
X9825000Y-39750000D01*
G75*
G02*
X10050000Y-39525000I225000J0D01*
G01*
X10500000Y-39525000D01*
G75*
G02*
X10725000Y-39750000I0J-225000D01*
G01*
X10725000Y-40250000D01*
G75*
G02*
X10500000Y-40475000I-225000J0D01*
G01*
X10050000Y-40475000D01*
G75*
G02*
X9825000Y-40250000I0J225000D01*
G01*
G37*
G36*
G01*
X8275000Y-40250000D02*
X8275000Y-39750000D01*
G75*
G02*
X8500000Y-39525000I225000J0D01*
G01*
X8950000Y-39525000D01*
G75*
G02*
X9175000Y-39750000I0J-225000D01*
G01*
X9175000Y-40250000D01*
G75*
G02*
X8950000Y-40475000I-225000J0D01*
G01*
X8500000Y-40475000D01*
G75*
G02*
X8275000Y-40250000I0J225000D01*
G01*
G37*
%TD*%
%TO.C,C11*%
G36*
G01*
X28825000Y-40250000D02*
X28825000Y-39750000D01*
G75*
G02*
X29050000Y-39525000I225000J0D01*
G01*
X29500000Y-39525000D01*
G75*
G02*
X29725000Y-39750000I0J-225000D01*
G01*
X29725000Y-40250000D01*
G75*
G02*
X29500000Y-40475000I-225000J0D01*
G01*
X29050000Y-40475000D01*
G75*
G02*
X28825000Y-40250000I0J225000D01*
G01*
G37*
G36*
G01*
X27275000Y-40250000D02*
X27275000Y-39750000D01*
G75*
G02*
X27500000Y-39525000I225000J0D01*
G01*
X27950000Y-39525000D01*
G75*
G02*
X28175000Y-39750000I0J-225000D01*
G01*
X28175000Y-40250000D01*
G75*
G02*
X27950000Y-40475000I-225000J0D01*
G01*
X27500000Y-40475000D01*
G75*
G02*
X27275000Y-40250000I0J225000D01*
G01*
G37*
%TD*%
%TO.C,C12*%
G36*
G01*
X40250000Y27275000D02*
X39750000Y27275000D01*
G75*
G02*
X39525000Y27500000I0J225000D01*
G01*
X39525000Y27950000D01*
G75*
G02*
X39750000Y28175000I225000J0D01*
G01*
X40250000Y28175000D01*
G75*
G02*
X40475000Y27950000I0J-225000D01*
G01*
X40475000Y27500000D01*
G75*
G02*
X40250000Y27275000I-225000J0D01*
G01*
G37*
G36*
G01*
X40250000Y28825000D02*
X39750000Y28825000D01*
G75*
G02*
X39525000Y29050000I0J225000D01*
G01*
X39525000Y29500000D01*
G75*
G02*
X39750000Y29725000I225000J0D01*
G01*
X40250000Y29725000D01*
G75*
G02*
X40475000Y29500000I0J-225000D01*
G01*
X40475000Y29050000D01*
G75*
G02*
X40250000Y28825000I-225000J0D01*
G01*
G37*
%TD*%
%TO.C,C13*%
G36*
G01*
X40250000Y8275000D02*
X39750000Y8275000D01*
G75*
G02*
X39525000Y8500000I0J225000D01*
G01*
X39525000Y8950000D01*
G75*
G02*
X39750000Y9175000I225000J0D01*
G01*
X40250000Y9175000D01*
G75*
G02*
X40475000Y8950000I0J-225000D01*
G01*
X40475000Y8500000D01*
G75*
G02*
X40250000Y8275000I-225000J0D01*
G01*
G37*
G36*
G01*
X40250000Y9825000D02*
X39750000Y9825000D01*
G75*
G02*
X39525000Y10050000I0J225000D01*
G01*
X39525000Y10500000D01*
G75*
G02*
X39750000Y10725000I225000J0D01*
G01*
X40250000Y10725000D01*
G75*
G02*
X40475000Y10500000I0J-225000D01*
G01*
X40475000Y10050000D01*
G75*
G02*
X40250000Y9825000I-225000J0D01*
G01*
G37*
%TD*%
%TO.C,C14*%
G36*
G01*
X-10725000Y-40250000D02*
X-10725000Y-39750000D01*
G75*
G02*
X-10500000Y-39525000I225000J0D01*
G01*
X-10050000Y-39525000D01*
G75*
G02*
X-9825000Y-39750000I0J-225000D01*
G01*
X-9825000Y-40250000D01*
G75*
G02*
X-10050000Y-40475000I-225000J0D01*
G01*
X-10500000Y-40475000D01*
G75*
G02*
X-10725000Y-40250000I0J225000D01*
G01*
G37*
G36*
G01*
X-9175000Y-40250000D02*
X-9175000Y-39750000D01*
G75*
G02*
X-8950000Y-39525000I225000J0D01*
G01*
X-8500000Y-39525000D01*
G75*
G02*
X-8275000Y-39750000I0J-225000D01*
G01*
X-8275000Y-40250000D01*
G75*
G02*
X-8500000Y-40475000I-225000J0D01*
G01*
X-8950000Y-40475000D01*
G75*
G02*
X-9175000Y-40250000I0J225000D01*
G01*
G37*
%TD*%
%TO.C,C15*%
G36*
G01*
X-29725000Y-40250000D02*
X-29725000Y-39750000D01*
G75*
G02*
X-29500000Y-39525000I225000J0D01*
G01*
X-29050000Y-39525000D01*
G75*
G02*
X-28825000Y-39750000I0J-225000D01*
G01*
X-28825000Y-40250000D01*
G75*
G02*
X-29050000Y-40475000I-225000J0D01*
G01*
X-29500000Y-40475000D01*
G75*
G02*
X-29725000Y-40250000I0J225000D01*
G01*
G37*
G36*
G01*
X-28175000Y-40250000D02*
X-28175000Y-39750000D01*
G75*
G02*
X-27950000Y-39525000I225000J0D01*
G01*
X-27500000Y-39525000D01*
G75*
G02*
X-27275000Y-39750000I0J-225000D01*
G01*
X-27275000Y-40250000D01*
G75*
G02*
X-27500000Y-40475000I-225000J0D01*
G01*
X-27950000Y-40475000D01*
G75*
G02*
X-28175000Y-40250000I0J225000D01*
G01*
G37*
%TD*%
%TO.C,C16*%
G36*
G01*
X-40250000Y-9825000D02*
X-39750000Y-9825000D01*
G75*
G02*
X-39525000Y-10050000I0J-225000D01*
G01*
X-39525000Y-10500000D01*
G75*
G02*
X-39750000Y-10725000I-225000J0D01*
G01*
X-40250000Y-10725000D01*
G75*
G02*
X-40475000Y-10500000I0J225000D01*
G01*
X-40475000Y-10050000D01*
G75*
G02*
X-40250000Y-9825000I225000J0D01*
G01*
G37*
G36*
G01*
X-40250000Y-8275000D02*
X-39750000Y-8275000D01*
G75*
G02*
X-39525000Y-8500000I0J-225000D01*
G01*
X-39525000Y-8950000D01*
G75*
G02*
X-39750000Y-9175000I-225000J0D01*
G01*
X-40250000Y-9175000D01*
G75*
G02*
X-40475000Y-8950000I0J225000D01*
G01*
X-40475000Y-8500000D01*
G75*
G02*
X-40250000Y-8275000I225000J0D01*
G01*
G37*
%TD*%
%TO.C,C17*%
G36*
G01*
X40250000Y-28175000D02*
X39750000Y-28175000D01*
G75*
G02*
X39525000Y-27950000I0J225000D01*
G01*
X39525000Y-27500000D01*
G75*
G02*
X39750000Y-27275000I225000J0D01*
G01*
X40250000Y-27275000D01*
G75*
G02*
X40475000Y-27500000I0J-225000D01*
G01*
X40475000Y-27950000D01*
G75*
G02*
X40250000Y-28175000I-225000J0D01*
G01*
G37*
G36*
G01*
X40250000Y-29725000D02*
X39750000Y-29725000D01*
G75*
G02*
X39525000Y-29500000I0J225000D01*
G01*
X39525000Y-29050000D01*
G75*
G02*
X39750000Y-28825000I225000J0D01*
G01*
X40250000Y-28825000D01*
G75*
G02*
X40475000Y-29050000I0J-225000D01*
G01*
X40475000Y-29500000D01*
G75*
G02*
X40250000Y-29725000I-225000J0D01*
G01*
G37*
%TD*%
%TO.C,C18*%
G36*
G01*
X-40250000Y10725000D02*
X-39750000Y10725000D01*
G75*
G02*
X-39525000Y10500000I0J-225000D01*
G01*
X-39525000Y10050000D01*
G75*
G02*
X-39750000Y9825000I-225000J0D01*
G01*
X-40250000Y9825000D01*
G75*
G02*
X-40475000Y10050000I0J225000D01*
G01*
X-40475000Y10500000D01*
G75*
G02*
X-40250000Y10725000I225000J0D01*
G01*
G37*
G36*
G01*
X-40250000Y9175000D02*
X-39750000Y9175000D01*
G75*
G02*
X-39525000Y8950000I0J-225000D01*
G01*
X-39525000Y8500000D01*
G75*
G02*
X-39750000Y8275000I-225000J0D01*
G01*
X-40250000Y8275000D01*
G75*
G02*
X-40475000Y8500000I0J225000D01*
G01*
X-40475000Y8950000D01*
G75*
G02*
X-40250000Y9175000I225000J0D01*
G01*
G37*
%TD*%
%TO.C,C19*%
G36*
G01*
X-27275000Y40250000D02*
X-27275000Y39750000D01*
G75*
G02*
X-27500000Y39525000I-225000J0D01*
G01*
X-27950000Y39525000D01*
G75*
G02*
X-28175000Y39750000I0J225000D01*
G01*
X-28175000Y40250000D01*
G75*
G02*
X-27950000Y40475000I225000J0D01*
G01*
X-27500000Y40475000D01*
G75*
G02*
X-27275000Y40250000I0J-225000D01*
G01*
G37*
G36*
G01*
X-28825000Y40250000D02*
X-28825000Y39750000D01*
G75*
G02*
X-29050000Y39525000I-225000J0D01*
G01*
X-29500000Y39525000D01*
G75*
G02*
X-29725000Y39750000I0J225000D01*
G01*
X-29725000Y40250000D01*
G75*
G02*
X-29500000Y40475000I225000J0D01*
G01*
X-29050000Y40475000D01*
G75*
G02*
X-28825000Y40250000I0J-225000D01*
G01*
G37*
%TD*%
%TO.C,C20*%
G36*
G01*
X-40250000Y-28825000D02*
X-39750000Y-28825000D01*
G75*
G02*
X-39525000Y-29050000I0J-225000D01*
G01*
X-39525000Y-29500000D01*
G75*
G02*
X-39750000Y-29725000I-225000J0D01*
G01*
X-40250000Y-29725000D01*
G75*
G02*
X-40475000Y-29500000I0J225000D01*
G01*
X-40475000Y-29050000D01*
G75*
G02*
X-40250000Y-28825000I225000J0D01*
G01*
G37*
G36*
G01*
X-40250000Y-27275000D02*
X-39750000Y-27275000D01*
G75*
G02*
X-39525000Y-27500000I0J-225000D01*
G01*
X-39525000Y-27950000D01*
G75*
G02*
X-39750000Y-28175000I-225000J0D01*
G01*
X-40250000Y-28175000D01*
G75*
G02*
X-40475000Y-27950000I0J225000D01*
G01*
X-40475000Y-27500000D01*
G75*
G02*
X-40250000Y-27275000I225000J0D01*
G01*
G37*
%TD*%
%TO.C,C21*%
G36*
G01*
X10725000Y40250000D02*
X10725000Y39750000D01*
G75*
G02*
X10500000Y39525000I-225000J0D01*
G01*
X10050000Y39525000D01*
G75*
G02*
X9825000Y39750000I0J225000D01*
G01*
X9825000Y40250000D01*
G75*
G02*
X10050000Y40475000I225000J0D01*
G01*
X10500000Y40475000D01*
G75*
G02*
X10725000Y40250000I0J-225000D01*
G01*
G37*
G36*
G01*
X9175000Y40250000D02*
X9175000Y39750000D01*
G75*
G02*
X8950000Y39525000I-225000J0D01*
G01*
X8500000Y39525000D01*
G75*
G02*
X8275000Y39750000I0J225000D01*
G01*
X8275000Y40250000D01*
G75*
G02*
X8500000Y40475000I225000J0D01*
G01*
X8950000Y40475000D01*
G75*
G02*
X9175000Y40250000I0J-225000D01*
G01*
G37*
%TD*%
%TO.C,C22*%
G36*
G01*
X-40250000Y28175000D02*
X-39750000Y28175000D01*
G75*
G02*
X-39525000Y27950000I0J-225000D01*
G01*
X-39525000Y27500000D01*
G75*
G02*
X-39750000Y27275000I-225000J0D01*
G01*
X-40250000Y27275000D01*
G75*
G02*
X-40475000Y27500000I0J225000D01*
G01*
X-40475000Y27950000D01*
G75*
G02*
X-40250000Y28175000I225000J0D01*
G01*
G37*
G36*
G01*
X-40250000Y29725000D02*
X-39750000Y29725000D01*
G75*
G02*
X-39525000Y29500000I0J-225000D01*
G01*
X-39525000Y29050000D01*
G75*
G02*
X-39750000Y28825000I-225000J0D01*
G01*
X-40250000Y28825000D01*
G75*
G02*
X-40475000Y29050000I0J225000D01*
G01*
X-40475000Y29500000D01*
G75*
G02*
X-40250000Y29725000I225000J0D01*
G01*
G37*
%TD*%
%TO.C,C23*%
G36*
G01*
X28175000Y40250000D02*
X28175000Y39750000D01*
G75*
G02*
X27950000Y39525000I-225000J0D01*
G01*
X27500000Y39525000D01*
G75*
G02*
X27275000Y39750000I0J225000D01*
G01*
X27275000Y40250000D01*
G75*
G02*
X27500000Y40475000I225000J0D01*
G01*
X27950000Y40475000D01*
G75*
G02*
X28175000Y40250000I0J-225000D01*
G01*
G37*
G36*
G01*
X29725000Y40250000D02*
X29725000Y39750000D01*
G75*
G02*
X29500000Y39525000I-225000J0D01*
G01*
X29050000Y39525000D01*
G75*
G02*
X28825000Y39750000I0J225000D01*
G01*
X28825000Y40250000D01*
G75*
G02*
X29050000Y40475000I225000J0D01*
G01*
X29500000Y40475000D01*
G75*
G02*
X29725000Y40250000I0J-225000D01*
G01*
G37*
%TD*%
%TO.C,D2*%
X9925000Y-42500000D03*
X8225000Y-42500000D03*
X10775000Y-42500000D03*
X9075000Y-42500000D03*
%TD*%
%TO.C,D3*%
X-28075000Y42500000D03*
X-29775000Y42500000D03*
X-27225000Y42500000D03*
X-28925000Y42500000D03*
%TD*%
%TO.C,D4*%
X28925000Y-42500000D03*
X27225000Y-42500000D03*
X29775000Y-42500000D03*
X28075000Y-42500000D03*
%TD*%
D20*
%TO.C,D21*%
X-42500000Y28075000D03*
X-42500000Y29775000D03*
X-42500000Y27225000D03*
X-42500000Y28925000D03*
%TD*%
%TO.C,D22*%
X42500000Y-28925000D03*
X42500000Y-27225000D03*
X42500000Y-29775000D03*
X42500000Y-28075000D03*
%TD*%
%TO.C,D23*%
X-42500000Y9075000D03*
X-42500000Y10775000D03*
X-42500000Y8225000D03*
X-42500000Y9925000D03*
%TD*%
%TO.C,D24*%
X42500000Y-9925000D03*
X42500000Y-8225000D03*
X42500000Y-10775000D03*
X42500000Y-9075000D03*
%TD*%
%TO.C,D25*%
X-42500000Y-9925000D03*
X-42500000Y-8225000D03*
X-42500000Y-10775000D03*
X-42500000Y-9075000D03*
%TD*%
%TO.C,D26*%
X42500000Y9075000D03*
X42500000Y10775000D03*
X42500000Y8225000D03*
X42500000Y9925000D03*
%TD*%
%TO.C,D27*%
X-42500000Y-28925000D03*
X-42500000Y-27225000D03*
X-42500000Y-29775000D03*
X-42500000Y-28075000D03*
%TD*%
%TO.C,D28*%
X42500000Y28075000D03*
X42500000Y29775000D03*
X42500000Y27225000D03*
X42500000Y28925000D03*
%TD*%
D19*
%TO.C,D29*%
X-28075000Y-42500000D03*
X-29775000Y-42500000D03*
X-27225000Y-42500000D03*
X-28925000Y-42500000D03*
%TD*%
%TO.C,D30*%
X28075000Y42500000D03*
X29775000Y42500000D03*
X27225000Y42500000D03*
X28925000Y42500000D03*
%TD*%
%TO.C,D31*%
X-9925000Y-42500000D03*
X-8225000Y-42500000D03*
X-10775000Y-42500000D03*
X-9075000Y-42500000D03*
%TD*%
%TO.C,D32*%
X9925000Y42500000D03*
X8225000Y42500000D03*
X10775000Y42500000D03*
X9075000Y42500000D03*
%TD*%
M02*
