%TF.GenerationSoftware,KiCad,Pcbnew,5.1.9+dfsg1-1+deb11u1*%
%TF.CreationDate,2023-10-17T21:29:52+02:00*%
%TF.ProjectId,pcb,7063622e-6b69-4636-9164-5f7063625858,rev?*%
%TF.SameCoordinates,Original*%
%TF.FileFunction,Legend,Bot*%
%TF.FilePolarity,Positive*%
%FSLAX46Y46*%
G04 Gerber Fmt 4.6, Leading zero omitted, Abs format (unit mm)*
G04 Created by KiCad (PCBNEW 5.1.9+dfsg1-1+deb11u1) date 2023-10-17 21:29:52*
%MOMM*%
%LPD*%
G01*
G04 APERTURE LIST*
%ADD10C,0.150000*%
%ADD11C,0.120000*%
G04 APERTURE END LIST*
D10*
X20357142Y35595238D02*
X20214285Y35547619D01*
X19976190Y35547619D01*
X19880952Y35595238D01*
X19833333Y35642857D01*
X19785714Y35738095D01*
X19785714Y35833333D01*
X19833333Y35928571D01*
X19880952Y35976190D01*
X19976190Y36023809D01*
X20166666Y36071428D01*
X20261904Y36119047D01*
X20309523Y36166666D01*
X20357142Y36261904D01*
X20357142Y36357142D01*
X20309523Y36452380D01*
X20261904Y36500000D01*
X20166666Y36547619D01*
X19928571Y36547619D01*
X19785714Y36500000D01*
X19452380Y36547619D02*
X19214285Y35547619D01*
X19023809Y36261904D01*
X18833333Y35547619D01*
X18595238Y36547619D01*
X18214285Y35547619D02*
X18214285Y36547619D01*
X17976190Y36547619D01*
X17833333Y36500000D01*
X17738095Y36404761D01*
X17690476Y36309523D01*
X17642857Y36119047D01*
X17642857Y35976190D01*
X17690476Y35785714D01*
X17738095Y35690476D01*
X17833333Y35595238D01*
X17976190Y35547619D01*
X18214285Y35547619D01*
X17723928Y33127619D02*
X17723928Y34127619D01*
X17223928Y34127619D02*
X17081071Y34127619D01*
X17009642Y34080000D01*
X16938214Y33984761D01*
X16902500Y33794285D01*
X16902500Y33460952D01*
X16938214Y33270476D01*
X17009642Y33175238D01*
X17081071Y33127619D01*
X17223928Y33127619D01*
X17295357Y33175238D01*
X17366785Y33270476D01*
X17402500Y33460952D01*
X17402500Y33794285D01*
X17366785Y33984761D01*
X17295357Y34080000D01*
X17223928Y34127619D01*
X17295357Y30642857D02*
X17331071Y30595238D01*
X17438214Y30547619D01*
X17509642Y30547619D01*
X17616785Y30595238D01*
X17688214Y30690476D01*
X17723928Y30785714D01*
X17759642Y30976190D01*
X17759642Y31119047D01*
X17723928Y31309523D01*
X17688214Y31404761D01*
X17616785Y31500000D01*
X17509642Y31547619D01*
X17438214Y31547619D01*
X17331071Y31500000D01*
X17295357Y31452380D01*
X16616785Y30547619D02*
X16973928Y30547619D01*
X16973928Y31547619D01*
X16366785Y30547619D02*
X16366785Y31547619D01*
X15938214Y30547619D02*
X16259642Y31119047D01*
X15938214Y31547619D02*
X16366785Y30976190D01*
X17331071Y29000000D02*
X17402500Y29047619D01*
X17509642Y29047619D01*
X17616785Y29000000D01*
X17688214Y28904761D01*
X17723928Y28809523D01*
X17759642Y28619047D01*
X17759642Y28476190D01*
X17723928Y28285714D01*
X17688214Y28190476D01*
X17616785Y28095238D01*
X17509642Y28047619D01*
X17438214Y28047619D01*
X17331071Y28095238D01*
X17295357Y28142857D01*
X17295357Y28476190D01*
X17438214Y28476190D01*
X16973928Y28047619D02*
X16973928Y29047619D01*
X16545357Y28047619D01*
X16545357Y29047619D01*
X16188214Y28047619D02*
X16188214Y29047619D01*
X16009642Y29047619D01*
X15902500Y29000000D01*
X15831071Y28904761D01*
X15795357Y28809523D01*
X15759642Y28619047D01*
X15759642Y28476190D01*
X15795357Y28285714D01*
X15831071Y28190476D01*
X15902500Y28095238D01*
X16009642Y28047619D01*
X16188214Y28047619D01*
X6119047Y-39952380D02*
X6119047Y-40666666D01*
X6166666Y-40809523D01*
X6261904Y-40904761D01*
X6404761Y-40952380D01*
X6499999Y-40952380D01*
X5166666Y-40952380D02*
X5642857Y-40952380D01*
X5642857Y-39952380D01*
X4261904Y-40857142D02*
X4309523Y-40904761D01*
X4452380Y-40952380D01*
X4547619Y-40952380D01*
X4690476Y-40904761D01*
X4785714Y-40809523D01*
X4833333Y-40714285D01*
X4880952Y-40523809D01*
X4880952Y-40380952D01*
X4833333Y-40190476D01*
X4785714Y-40095238D01*
X4690476Y-40000000D01*
X4547619Y-39952380D01*
X4452380Y-39952380D01*
X4309523Y-40000000D01*
X4261904Y-40047619D01*
X3547619Y-39952380D02*
X3547619Y-40666666D01*
X3595238Y-40809523D01*
X3690476Y-40904761D01*
X3833333Y-40952380D01*
X3928571Y-40952380D01*
X2595238Y-40952380D02*
X3071428Y-40952380D01*
X3071428Y-39952380D01*
X1690476Y-40857142D02*
X1738095Y-40904761D01*
X1880952Y-40952380D01*
X1976190Y-40952380D01*
X2119047Y-40904761D01*
X2214285Y-40809523D01*
X2261904Y-40714285D01*
X2309523Y-40523809D01*
X2309523Y-40380952D01*
X2261904Y-40190476D01*
X2214285Y-40095238D01*
X2119047Y-40000000D01*
X1976190Y-39952380D01*
X1880952Y-39952380D01*
X1738095Y-40000000D01*
X1690476Y-40047619D01*
X976190Y-39952380D02*
X976190Y-40666666D01*
X1023809Y-40809523D01*
X1119047Y-40904761D01*
X1261904Y-40952380D01*
X1357142Y-40952380D01*
X23809Y-40952380D02*
X500000Y-40952380D01*
X500000Y-39952380D01*
X-880952Y-40857142D02*
X-833333Y-40904761D01*
X-690476Y-40952380D01*
X-595238Y-40952380D01*
X-452380Y-40904761D01*
X-357142Y-40809523D01*
X-309523Y-40714285D01*
X-261904Y-40523809D01*
X-261904Y-40380952D01*
X-309523Y-40190476D01*
X-357142Y-40095238D01*
X-452380Y-40000000D01*
X-595238Y-39952380D01*
X-690476Y-39952380D01*
X-833333Y-40000000D01*
X-880952Y-40047619D01*
X-1595238Y-39952380D02*
X-1595238Y-40666666D01*
X-1547619Y-40809523D01*
X-1452380Y-40904761D01*
X-1309523Y-40952380D01*
X-1214285Y-40952380D01*
X-2547619Y-40952380D02*
X-2071428Y-40952380D01*
X-2071428Y-39952380D01*
X-3452380Y-40857142D02*
X-3404761Y-40904761D01*
X-3261904Y-40952380D01*
X-3166666Y-40952380D01*
X-3023809Y-40904761D01*
X-2928571Y-40809523D01*
X-2880952Y-40714285D01*
X-2833333Y-40523809D01*
X-2833333Y-40380952D01*
X-2880952Y-40190476D01*
X-2928571Y-40095238D01*
X-3023809Y-40000000D01*
X-3166666Y-39952380D01*
X-3261904Y-39952380D01*
X-3404761Y-40000000D01*
X-3452380Y-40047619D01*
X-15809523Y15737619D02*
X-15333333Y15737619D01*
X-15285714Y15261428D01*
X-15333333Y15309047D01*
X-15428571Y15356666D01*
X-15666666Y15356666D01*
X-15761904Y15309047D01*
X-15809523Y15261428D01*
X-15857142Y15166190D01*
X-15857142Y14928095D01*
X-15809523Y14832857D01*
X-15761904Y14785238D01*
X-15666666Y14737619D01*
X-15428571Y14737619D01*
X-15333333Y14785238D01*
X-15285714Y14832857D01*
X-16142857Y15737619D02*
X-16476190Y14737619D01*
X-16809523Y15737619D01*
X-15238095Y18287619D02*
X-15809523Y18287619D01*
X-15523809Y17287619D02*
X-15523809Y18287619D01*
X-16047619Y18287619D02*
X-16714285Y17287619D01*
X-16714285Y18287619D02*
X-16047619Y17287619D01*
X-15833333Y19817619D02*
X-15500000Y20293809D01*
X-15261904Y19817619D02*
X-15261904Y20817619D01*
X-15642857Y20817619D01*
X-15738095Y20770000D01*
X-15785714Y20722380D01*
X-15833333Y20627142D01*
X-15833333Y20484285D01*
X-15785714Y20389047D01*
X-15738095Y20341428D01*
X-15642857Y20293809D01*
X-15261904Y20293809D01*
X-16166666Y20817619D02*
X-16833333Y19817619D01*
X-16833333Y20817619D02*
X-16166666Y19817619D01*
X-15238095Y23320000D02*
X-15142857Y23367619D01*
X-14999999Y23367619D01*
X-14857142Y23320000D01*
X-14761904Y23224761D01*
X-14714285Y23129523D01*
X-14666666Y22939047D01*
X-14666666Y22796190D01*
X-14714285Y22605714D01*
X-14761904Y22510476D01*
X-14857142Y22415238D01*
X-14999999Y22367619D01*
X-15095238Y22367619D01*
X-15238095Y22415238D01*
X-15285714Y22462857D01*
X-15285714Y22796190D01*
X-15095238Y22796190D01*
X-15714285Y22367619D02*
X-15714285Y23367619D01*
X-16285714Y22367619D01*
X-16285714Y23367619D01*
X-16761904Y22367619D02*
X-16761904Y23367619D01*
X-17000000Y23367619D01*
X-17142857Y23320000D01*
X-17238095Y23224761D01*
X-17285714Y23129523D01*
X-17333333Y22939047D01*
X-17333333Y22796190D01*
X-17285714Y22605714D01*
X-17238095Y22510476D01*
X-17142857Y22415238D01*
X-17000000Y22367619D01*
X-16761904Y22367619D01*
D11*
%TO.C,U1*%
X-3610000Y24560000D02*
X-3610000Y25010000D01*
X-3610000Y25010000D02*
X-3160000Y25010000D01*
X-3610000Y18240000D02*
X-3610000Y17790000D01*
X-3610000Y17790000D02*
X-3160000Y17790000D01*
X3610000Y24560000D02*
X3610000Y25010000D01*
X3610000Y25010000D02*
X3160000Y25010000D01*
X3610000Y18240000D02*
X3610000Y17790000D01*
X3610000Y17790000D02*
X3160000Y17790000D01*
X3160000Y17790000D02*
X3160000Y16500000D01*
%TO.C,U2*%
X4300000Y37310000D02*
X6100000Y37310000D01*
X6100000Y34090000D02*
X3650000Y34090000D01*
%TO.C,R5*%
X2637258Y39777500D02*
X2162742Y39777500D01*
X2637258Y40822500D02*
X2162742Y40822500D01*
%TO.C,R4*%
X-3177500Y39162742D02*
X-3177500Y39637258D01*
X-4222500Y39162742D02*
X-4222500Y39637258D01*
%TO.C,R6*%
X-522500Y35837258D02*
X-522500Y35362742D01*
X522500Y35837258D02*
X522500Y35362742D01*
%TO.C,R7*%
X-1777500Y35837258D02*
X-1777500Y35362742D01*
X-2822500Y35837258D02*
X-2822500Y35362742D01*
%TO.C,R8*%
X2022500Y35837258D02*
X2022500Y35362742D01*
X977500Y35837258D02*
X977500Y35362742D01*
%TO.C,U3*%
X-2610000Y38100000D02*
X-2610000Y39900000D01*
X610000Y39900000D02*
X610000Y37450000D01*
%TO.C,C1*%
X4990000Y39259420D02*
X4990000Y39540580D01*
X6010000Y39259420D02*
X6010000Y39540580D01*
%TO.C,C3*%
X3740580Y32490000D02*
X3459420Y32490000D01*
X3740580Y33510000D02*
X3459420Y33510000D01*
%TO.C,FB1*%
X2262742Y37977500D02*
X2737258Y37977500D01*
X2262742Y39022500D02*
X2737258Y39022500D01*
%TO.C,C4*%
X2490000Y14159420D02*
X2490000Y14440580D01*
X3510000Y14159420D02*
X3510000Y14440580D01*
%TO.C,C6*%
X-3510000Y14440579D02*
X-3510000Y14159419D01*
X-2490000Y14440579D02*
X-2490000Y14159419D01*
%TO.C,Y1*%
X2000000Y12650000D02*
X-2000000Y12650000D01*
X2000000Y15950000D02*
X2000000Y12650000D01*
%TO.C,C8*%
X5959420Y25190000D02*
X6240580Y25190000D01*
X5959420Y26210000D02*
X6240580Y26210000D01*
%TO.C,C9*%
X-4959420Y25390000D02*
X-5240580Y25390000D01*
X-4959420Y26410000D02*
X-5240580Y26410000D01*
%TO.C,C10*%
X5459420Y15690000D02*
X5740580Y15690000D01*
X5459420Y16710000D02*
X5740580Y16710000D01*
%TO.C,R1*%
X6522500Y19282742D02*
X6522500Y19757258D01*
X5477500Y19282742D02*
X5477500Y19757258D01*
%TO.C,D5*%
X-24360000Y23030000D02*
X-24360000Y26930000D01*
X-26360000Y23030000D02*
X-26360000Y26930000D01*
X-24360000Y23030000D02*
X-26360000Y23030000D01*
%TO.C,D6*%
X-24360000Y4030000D02*
X-24360000Y7930000D01*
X-26360000Y4030000D02*
X-26360000Y7930000D01*
X-24360000Y4030000D02*
X-26360000Y4030000D01*
%TO.C,D7*%
X-24360000Y-14970000D02*
X-26360000Y-14970000D01*
X-26360000Y-14970000D02*
X-26360000Y-11070000D01*
X-24360000Y-14970000D02*
X-24360000Y-11070000D01*
%TO.C,D8*%
X-24360000Y-33970000D02*
X-26360000Y-33970000D01*
X-26360000Y-33970000D02*
X-26360000Y-30070000D01*
X-24360000Y-33970000D02*
X-24360000Y-30070000D01*
%TO.C,D9*%
X-8000000Y20750000D02*
X-10000000Y20750000D01*
X-10000000Y20750000D02*
X-10000000Y24650000D01*
X-8000000Y20750000D02*
X-8000000Y24650000D01*
%TO.C,D10*%
X-5360000Y4030000D02*
X-7360000Y4030000D01*
X-7360000Y4030000D02*
X-7360000Y7930000D01*
X-5360000Y4030000D02*
X-5360000Y7930000D01*
%TO.C,D11*%
X-5360000Y-14970000D02*
X-7360000Y-14970000D01*
X-7360000Y-14970000D02*
X-7360000Y-11070000D01*
X-5360000Y-14970000D02*
X-5360000Y-11070000D01*
%TO.C,D12*%
X-5360000Y-33970000D02*
X-5360000Y-30070000D01*
X-7360000Y-33970000D02*
X-7360000Y-30070000D01*
X-5360000Y-33970000D02*
X-7360000Y-33970000D01*
%TO.C,D13*%
X13640000Y23030000D02*
X13640000Y26930000D01*
X11640000Y23030000D02*
X11640000Y26930000D01*
X13640000Y23030000D02*
X11640000Y23030000D01*
%TO.C,D14*%
X13640000Y4030000D02*
X13640000Y7930000D01*
X11640000Y4030000D02*
X11640000Y7930000D01*
X13640000Y4030000D02*
X11640000Y4030000D01*
%TO.C,D15*%
X13640000Y-14970000D02*
X11640000Y-14970000D01*
X11640000Y-14970000D02*
X11640000Y-11070000D01*
X13640000Y-14970000D02*
X13640000Y-11070000D01*
%TO.C,D16*%
X13640000Y-33970000D02*
X11640000Y-33970000D01*
X11640000Y-33970000D02*
X11640000Y-30070000D01*
X13640000Y-33970000D02*
X13640000Y-30070000D01*
%TO.C,D17*%
X32640000Y23030000D02*
X32640000Y26930000D01*
X30640000Y23030000D02*
X30640000Y26930000D01*
X32640000Y23030000D02*
X30640000Y23030000D01*
%TO.C,D18*%
X32640000Y4030000D02*
X30640000Y4030000D01*
X30640000Y4030000D02*
X30640000Y7930000D01*
X32640000Y4030000D02*
X32640000Y7930000D01*
%TO.C,D19*%
X32640000Y-14970000D02*
X32640000Y-11070000D01*
X30640000Y-14970000D02*
X30640000Y-11070000D01*
X32640000Y-14970000D02*
X30640000Y-14970000D01*
%TO.C,D20*%
X32640000Y-33970000D02*
X32640000Y-30070000D01*
X30640000Y-33970000D02*
X30640000Y-30070000D01*
X32640000Y-33970000D02*
X30640000Y-33970000D01*
%TO.C,U1*%
D10*
X471428Y21947619D02*
X471428Y21138095D01*
X435714Y21042857D01*
X399999Y20995238D01*
X328571Y20947619D01*
X185714Y20947619D01*
X114285Y20995238D01*
X78571Y21042857D01*
X42857Y21138095D01*
X42857Y21947619D01*
X-707142Y20947619D02*
X-278571Y20947619D01*
X-492857Y20947619D02*
X-492857Y21947619D01*
X-421428Y21804761D01*
X-349999Y21709523D01*
X-278571Y21661904D01*
%TO.C,U2*%
X6371428Y36110714D02*
X6371428Y35503571D01*
X6335714Y35432142D01*
X6300000Y35396428D01*
X6228571Y35360714D01*
X6085714Y35360714D01*
X6014285Y35396428D01*
X5978571Y35432142D01*
X5942857Y35503571D01*
X5942857Y36110714D01*
X5621428Y36039285D02*
X5585714Y36075000D01*
X5514285Y36110714D01*
X5335714Y36110714D01*
X5264285Y36075000D01*
X5228571Y36039285D01*
X5192857Y35967857D01*
X5192857Y35896428D01*
X5228571Y35789285D01*
X5657142Y35360714D01*
X5192857Y35360714D01*
%TO.C,J1*%
X250000Y45247620D02*
X250000Y44533334D01*
X285714Y44390477D01*
X357142Y44295239D01*
X464285Y44247620D01*
X535714Y44247620D01*
X-499999Y44247620D02*
X-71428Y44247620D01*
X-285714Y44247620D02*
X-285714Y45247620D01*
X-214285Y45104762D01*
X-142857Y45009524D01*
X-71428Y44961905D01*
%TO.C,R5*%
X4639285Y40425000D02*
X4282142Y40675000D01*
X4639285Y40853571D02*
X3889285Y40853571D01*
X3889285Y40567857D01*
X3925000Y40496428D01*
X3960714Y40460714D01*
X4032142Y40425000D01*
X4139285Y40425000D01*
X4210714Y40460714D01*
X4246428Y40496428D01*
X4282142Y40567857D01*
X4282142Y40853571D01*
X3889285Y39746428D02*
X3889285Y40103571D01*
X4246428Y40139285D01*
X4210714Y40103571D01*
X4175000Y40032142D01*
X4175000Y39853571D01*
X4210714Y39782142D01*
X4246428Y39746428D01*
X4317857Y39710714D01*
X4496428Y39710714D01*
X4567857Y39746428D01*
X4603571Y39782142D01*
X4639285Y39853571D01*
X4639285Y40032142D01*
X4603571Y40103571D01*
X4567857Y40139285D01*
%TO.C,R4*%
X-5125000Y38947619D02*
X-4875000Y39423809D01*
X-4696428Y38947619D02*
X-4696428Y39947619D01*
X-4982142Y39947619D01*
X-5053571Y39900000D01*
X-5089285Y39852380D01*
X-5125000Y39757142D01*
X-5125000Y39614285D01*
X-5089285Y39519047D01*
X-5053571Y39471428D01*
X-4982142Y39423809D01*
X-4696428Y39423809D01*
X-5767857Y39614285D02*
X-5767857Y38947619D01*
X-5589285Y39995238D02*
X-5410714Y39280952D01*
X-5875000Y39280952D01*
%TO.C,R6*%
X-860714Y35725000D02*
X-1217857Y35975000D01*
X-860714Y36153571D02*
X-1610714Y36153571D01*
X-1610714Y35867857D01*
X-1575000Y35796428D01*
X-1539285Y35760714D01*
X-1467857Y35725000D01*
X-1360714Y35725000D01*
X-1289285Y35760714D01*
X-1253571Y35796428D01*
X-1217857Y35867857D01*
X-1217857Y36153571D01*
X-1610714Y35082142D02*
X-1610714Y35225000D01*
X-1575000Y35296428D01*
X-1539285Y35332142D01*
X-1432142Y35403571D01*
X-1289285Y35439285D01*
X-1003571Y35439285D01*
X-932142Y35403571D01*
X-896428Y35367857D01*
X-860714Y35296428D01*
X-860714Y35153571D01*
X-896428Y35082142D01*
X-932142Y35046428D01*
X-1003571Y35010714D01*
X-1182142Y35010714D01*
X-1253571Y35046428D01*
X-1289285Y35082142D01*
X-1325000Y35153571D01*
X-1325000Y35296428D01*
X-1289285Y35367857D01*
X-1253571Y35403571D01*
X-1182142Y35439285D01*
%TO.C,R7*%
X-3447619Y35725000D02*
X-3923809Y35975000D01*
X-3447619Y36153571D02*
X-4447619Y36153571D01*
X-4447619Y35867857D01*
X-4400000Y35796428D01*
X-4352380Y35760714D01*
X-4257142Y35725000D01*
X-4114285Y35725000D01*
X-4019047Y35760714D01*
X-3971428Y35796428D01*
X-3923809Y35867857D01*
X-3923809Y36153571D01*
X-4447619Y35475000D02*
X-4447619Y34975000D01*
X-3447619Y35296428D01*
%TO.C,R8*%
X3139285Y35825000D02*
X2782142Y36075000D01*
X3139285Y36253571D02*
X2389285Y36253571D01*
X2389285Y35967857D01*
X2425000Y35896428D01*
X2460714Y35860714D01*
X2532142Y35825000D01*
X2639285Y35825000D01*
X2710714Y35860714D01*
X2746428Y35896428D01*
X2782142Y35967857D01*
X2782142Y36253571D01*
X2710714Y35396428D02*
X2675000Y35467857D01*
X2639285Y35503571D01*
X2567857Y35539285D01*
X2532142Y35539285D01*
X2460714Y35503571D01*
X2425000Y35467857D01*
X2389285Y35396428D01*
X2389285Y35253571D01*
X2425000Y35182142D01*
X2460714Y35146428D01*
X2532142Y35110714D01*
X2567857Y35110714D01*
X2639285Y35146428D01*
X2675000Y35182142D01*
X2710714Y35253571D01*
X2710714Y35396428D01*
X2746428Y35467857D01*
X2782142Y35503571D01*
X2853571Y35539285D01*
X2996428Y35539285D01*
X3067857Y35503571D01*
X3103571Y35467857D01*
X3139285Y35396428D01*
X3139285Y35253571D01*
X3103571Y35182142D01*
X3067857Y35146428D01*
X2996428Y35110714D01*
X2853571Y35110714D01*
X2782142Y35146428D01*
X2746428Y35182142D01*
X2710714Y35253571D01*
%TO.C,U3*%
X-2728571Y37810714D02*
X-2728571Y37203571D01*
X-2764285Y37132142D01*
X-2800000Y37096428D01*
X-2871428Y37060714D01*
X-3014285Y37060714D01*
X-3085714Y37096428D01*
X-3121428Y37132142D01*
X-3157142Y37203571D01*
X-3157142Y37810714D01*
X-3442857Y37810714D02*
X-3907142Y37810714D01*
X-3657142Y37525000D01*
X-3764285Y37525000D01*
X-3835714Y37489285D01*
X-3871428Y37453571D01*
X-3907142Y37382142D01*
X-3907142Y37203571D01*
X-3871428Y37132142D01*
X-3835714Y37096428D01*
X-3764285Y37060714D01*
X-3550000Y37060714D01*
X-3478571Y37096428D01*
X-3442857Y37132142D01*
%TO.C,C1*%
X5625000Y41242857D02*
X5660714Y41195238D01*
X5767857Y41147619D01*
X5839285Y41147619D01*
X5946428Y41195238D01*
X6017857Y41290476D01*
X6053571Y41385714D01*
X6089285Y41576190D01*
X6089285Y41719047D01*
X6053571Y41909523D01*
X6017857Y42004761D01*
X5946428Y42100000D01*
X5839285Y42147619D01*
X5767857Y42147619D01*
X5660714Y42100000D01*
X5625000Y42052380D01*
X4910714Y41147619D02*
X5339285Y41147619D01*
X5125000Y41147619D02*
X5125000Y42147619D01*
X5196428Y42004761D01*
X5267857Y41909523D01*
X5339285Y41861904D01*
%TO.C,C3*%
X3725000Y31142857D02*
X3760714Y31095238D01*
X3867857Y31047619D01*
X3939285Y31047619D01*
X4046428Y31095238D01*
X4117857Y31190476D01*
X4153571Y31285714D01*
X4189285Y31476190D01*
X4189285Y31619047D01*
X4153571Y31809523D01*
X4117857Y31904761D01*
X4046428Y32000000D01*
X3939285Y32047619D01*
X3867857Y32047619D01*
X3760714Y32000000D01*
X3725000Y31952380D01*
X3475000Y32047619D02*
X3010714Y32047619D01*
X3260714Y31666666D01*
X3153571Y31666666D01*
X3082142Y31619047D01*
X3046428Y31571428D01*
X3010714Y31476190D01*
X3010714Y31238095D01*
X3046428Y31142857D01*
X3082142Y31095238D01*
X3153571Y31047619D01*
X3367857Y31047619D01*
X3439285Y31095238D01*
X3475000Y31142857D01*
%TO.C,FB1*%
X3125000Y37453571D02*
X3375000Y37453571D01*
X3375000Y37060714D02*
X3375000Y37810714D01*
X3017857Y37810714D01*
X2482142Y37453571D02*
X2375000Y37417857D01*
X2339285Y37382142D01*
X2303571Y37310714D01*
X2303571Y37203571D01*
X2339285Y37132142D01*
X2375000Y37096428D01*
X2446428Y37060714D01*
X2732142Y37060714D01*
X2732142Y37810714D01*
X2482142Y37810714D01*
X2410714Y37775000D01*
X2375000Y37739285D01*
X2339285Y37667857D01*
X2339285Y37596428D01*
X2375000Y37525000D01*
X2410714Y37489285D01*
X2482142Y37453571D01*
X2732142Y37453571D01*
X1589285Y37060714D02*
X2017857Y37060714D01*
X1803571Y37060714D02*
X1803571Y37810714D01*
X1875000Y37703571D01*
X1946428Y37632142D01*
X2017857Y37596428D01*
%TO.C,C4*%
X2875000Y11892857D02*
X2910714Y11845238D01*
X3017857Y11797619D01*
X3089285Y11797619D01*
X3196428Y11845238D01*
X3267857Y11940476D01*
X3303571Y12035714D01*
X3339285Y12226190D01*
X3339285Y12369047D01*
X3303571Y12559523D01*
X3267857Y12654761D01*
X3196428Y12750000D01*
X3089285Y12797619D01*
X3017857Y12797619D01*
X2910714Y12750000D01*
X2875000Y12702380D01*
X2232142Y12464285D02*
X2232142Y11797619D01*
X2410714Y12845238D02*
X2589285Y12130952D01*
X2125000Y12130952D01*
%TO.C,C6*%
X-4072857Y14424999D02*
X-4025238Y14460713D01*
X-3977619Y14567856D01*
X-3977619Y14639284D01*
X-4025238Y14746427D01*
X-4120476Y14817856D01*
X-4215714Y14853570D01*
X-4406190Y14889284D01*
X-4549047Y14889284D01*
X-4739523Y14853570D01*
X-4834761Y14817856D01*
X-4930000Y14746427D01*
X-4977619Y14639284D01*
X-4977619Y14567856D01*
X-4930000Y14460713D01*
X-4882380Y14424999D01*
X-4977619Y13782141D02*
X-4977619Y13924999D01*
X-4930000Y13996427D01*
X-4882380Y14032141D01*
X-4739523Y14103570D01*
X-4549047Y14139284D01*
X-4168095Y14139284D01*
X-4072857Y14103570D01*
X-4025238Y14067856D01*
X-3977619Y13996427D01*
X-3977619Y13853570D01*
X-4025238Y13782141D01*
X-4072857Y13746427D01*
X-4168095Y13710713D01*
X-4406190Y13710713D01*
X-4501428Y13746427D01*
X-4549047Y13782141D01*
X-4596666Y13853570D01*
X-4596666Y13996427D01*
X-4549047Y14067856D01*
X-4501428Y14103570D01*
X-4406190Y14139284D01*
%TO.C,Y1*%
X357142Y11973809D02*
X357142Y11497619D01*
X607142Y12497619D02*
X357142Y11973809D01*
X107142Y12497619D01*
X-535714Y11497619D02*
X-107142Y11497619D01*
X-321428Y11497619D02*
X-321428Y12497619D01*
X-250000Y12354761D01*
X-178571Y12259523D01*
X-107142Y12211904D01*
%TO.C,C8*%
X6225000Y23912857D02*
X6260714Y23865238D01*
X6367857Y23817619D01*
X6439285Y23817619D01*
X6546428Y23865238D01*
X6617857Y23960476D01*
X6653571Y24055714D01*
X6689285Y24246190D01*
X6689285Y24389047D01*
X6653571Y24579523D01*
X6617857Y24674761D01*
X6546428Y24770000D01*
X6439285Y24817619D01*
X6367857Y24817619D01*
X6260714Y24770000D01*
X6225000Y24722380D01*
X5796428Y24389047D02*
X5867857Y24436666D01*
X5903571Y24484285D01*
X5939285Y24579523D01*
X5939285Y24627142D01*
X5903571Y24722380D01*
X5867857Y24770000D01*
X5796428Y24817619D01*
X5653571Y24817619D01*
X5582142Y24770000D01*
X5546428Y24722380D01*
X5510714Y24627142D01*
X5510714Y24579523D01*
X5546428Y24484285D01*
X5582142Y24436666D01*
X5653571Y24389047D01*
X5796428Y24389047D01*
X5867857Y24341428D01*
X5903571Y24293809D01*
X5939285Y24198571D01*
X5939285Y24008095D01*
X5903571Y23912857D01*
X5867857Y23865238D01*
X5796428Y23817619D01*
X5653571Y23817619D01*
X5582142Y23865238D01*
X5546428Y23912857D01*
X5510714Y24008095D01*
X5510714Y24198571D01*
X5546428Y24293809D01*
X5582142Y24341428D01*
X5653571Y24389047D01*
%TO.C,C9*%
X-4575000Y26732142D02*
X-4539285Y26696428D01*
X-4432142Y26660714D01*
X-4360714Y26660714D01*
X-4253571Y26696428D01*
X-4182142Y26767857D01*
X-4146428Y26839285D01*
X-4110714Y26982142D01*
X-4110714Y27089285D01*
X-4146428Y27232142D01*
X-4182142Y27303571D01*
X-4253571Y27375000D01*
X-4360714Y27410714D01*
X-4432142Y27410714D01*
X-4539285Y27375000D01*
X-4575000Y27339285D01*
X-4932142Y26660714D02*
X-5075000Y26660714D01*
X-5146428Y26696428D01*
X-5182142Y26732142D01*
X-5253571Y26839285D01*
X-5289285Y26982142D01*
X-5289285Y27267857D01*
X-5253571Y27339285D01*
X-5217857Y27375000D01*
X-5146428Y27410714D01*
X-5003571Y27410714D01*
X-4932142Y27375000D01*
X-4896428Y27339285D01*
X-4860714Y27267857D01*
X-4860714Y27089285D01*
X-4896428Y27017857D01*
X-4932142Y26982142D01*
X-5003571Y26946428D01*
X-5146428Y26946428D01*
X-5217857Y26982142D01*
X-5253571Y27017857D01*
X-5289285Y27089285D01*
%TO.C,C10*%
X6082142Y14412857D02*
X6117857Y14365238D01*
X6225000Y14317619D01*
X6296428Y14317619D01*
X6403571Y14365238D01*
X6475000Y14460476D01*
X6510714Y14555714D01*
X6546428Y14746190D01*
X6546428Y14889047D01*
X6510714Y15079523D01*
X6475000Y15174761D01*
X6403571Y15270000D01*
X6296428Y15317619D01*
X6225000Y15317619D01*
X6117857Y15270000D01*
X6082142Y15222380D01*
X5367857Y14317619D02*
X5796428Y14317619D01*
X5582142Y14317619D02*
X5582142Y15317619D01*
X5653571Y15174761D01*
X5725000Y15079523D01*
X5796428Y15031904D01*
X4903571Y15317619D02*
X4832142Y15317619D01*
X4760714Y15270000D01*
X4725000Y15222380D01*
X4689285Y15127142D01*
X4653571Y14936666D01*
X4653571Y14698571D01*
X4689285Y14508095D01*
X4725000Y14412857D01*
X4760714Y14365238D01*
X4832142Y14317619D01*
X4903571Y14317619D01*
X4975000Y14365238D01*
X5010714Y14412857D01*
X5046428Y14508095D01*
X5082142Y14698571D01*
X5082142Y14936666D01*
X5046428Y15127142D01*
X5010714Y15222380D01*
X4975000Y15270000D01*
X4903571Y15317619D01*
%TO.C,R1*%
X6125000Y16947619D02*
X6375000Y17423809D01*
X6553571Y16947619D02*
X6553571Y17947619D01*
X6267857Y17947619D01*
X6196428Y17900000D01*
X6160714Y17852380D01*
X6125000Y17757142D01*
X6125000Y17614285D01*
X6160714Y17519047D01*
X6196428Y17471428D01*
X6267857Y17423809D01*
X6553571Y17423809D01*
X5410714Y16947619D02*
X5839285Y16947619D01*
X5625000Y16947619D02*
X5625000Y17947619D01*
X5696428Y17804761D01*
X5767857Y17709523D01*
X5839285Y17661904D01*
%TO.C,D5*%
X-22907619Y26018095D02*
X-23907619Y26018095D01*
X-23907619Y25780000D01*
X-23860000Y25637142D01*
X-23764761Y25541904D01*
X-23669523Y25494285D01*
X-23479047Y25446666D01*
X-23336190Y25446666D01*
X-23145714Y25494285D01*
X-23050476Y25541904D01*
X-22955238Y25637142D01*
X-22907619Y25780000D01*
X-22907619Y26018095D01*
X-23907619Y24541904D02*
X-23907619Y25018095D01*
X-23431428Y25065714D01*
X-23479047Y25018095D01*
X-23526666Y24922857D01*
X-23526666Y24684761D01*
X-23479047Y24589523D01*
X-23431428Y24541904D01*
X-23336190Y24494285D01*
X-23098095Y24494285D01*
X-23002857Y24541904D01*
X-22955238Y24589523D01*
X-22907619Y24684761D01*
X-22907619Y24922857D01*
X-22955238Y25018095D01*
X-23002857Y25065714D01*
%TO.C,D6*%
X-22907619Y7018095D02*
X-23907619Y7018095D01*
X-23907619Y6780000D01*
X-23860000Y6637142D01*
X-23764761Y6541904D01*
X-23669523Y6494285D01*
X-23479047Y6446666D01*
X-23336190Y6446666D01*
X-23145714Y6494285D01*
X-23050476Y6541904D01*
X-22955238Y6637142D01*
X-22907619Y6780000D01*
X-22907619Y7018095D01*
X-23907619Y5589523D02*
X-23907619Y5780000D01*
X-23860000Y5875238D01*
X-23812380Y5922857D01*
X-23669523Y6018095D01*
X-23479047Y6065714D01*
X-23098095Y6065714D01*
X-23002857Y6018095D01*
X-22955238Y5970476D01*
X-22907619Y5875238D01*
X-22907619Y5684761D01*
X-22955238Y5589523D01*
X-23002857Y5541904D01*
X-23098095Y5494285D01*
X-23336190Y5494285D01*
X-23431428Y5541904D01*
X-23479047Y5589523D01*
X-23526666Y5684761D01*
X-23526666Y5875238D01*
X-23479047Y5970476D01*
X-23431428Y6018095D01*
X-23336190Y6065714D01*
%TO.C,D7*%
X-22907619Y-11981904D02*
X-23907619Y-11981904D01*
X-23907619Y-12220000D01*
X-23860000Y-12362857D01*
X-23764761Y-12458095D01*
X-23669523Y-12505714D01*
X-23479047Y-12553333D01*
X-23336190Y-12553333D01*
X-23145714Y-12505714D01*
X-23050476Y-12458095D01*
X-22955238Y-12362857D01*
X-22907619Y-12220000D01*
X-22907619Y-11981904D01*
X-23907619Y-12886666D02*
X-23907619Y-13553333D01*
X-22907619Y-13124761D01*
%TO.C,D8*%
X-22907619Y-30981904D02*
X-23907619Y-30981904D01*
X-23907619Y-31220000D01*
X-23860000Y-31362857D01*
X-23764761Y-31458095D01*
X-23669523Y-31505714D01*
X-23479047Y-31553333D01*
X-23336190Y-31553333D01*
X-23145714Y-31505714D01*
X-23050476Y-31458095D01*
X-22955238Y-31362857D01*
X-22907619Y-31220000D01*
X-22907619Y-30981904D01*
X-23479047Y-32124761D02*
X-23526666Y-32029523D01*
X-23574285Y-31981904D01*
X-23669523Y-31934285D01*
X-23717142Y-31934285D01*
X-23812380Y-31981904D01*
X-23860000Y-32029523D01*
X-23907619Y-32124761D01*
X-23907619Y-32315238D01*
X-23860000Y-32410476D01*
X-23812380Y-32458095D01*
X-23717142Y-32505714D01*
X-23669523Y-32505714D01*
X-23574285Y-32458095D01*
X-23526666Y-32410476D01*
X-23479047Y-32315238D01*
X-23479047Y-32124761D01*
X-23431428Y-32029523D01*
X-23383809Y-31981904D01*
X-23288571Y-31934285D01*
X-23098095Y-31934285D01*
X-23002857Y-31981904D01*
X-22955238Y-32029523D01*
X-22907619Y-32124761D01*
X-22907619Y-32315238D01*
X-22955238Y-32410476D01*
X-23002857Y-32458095D01*
X-23098095Y-32505714D01*
X-23288571Y-32505714D01*
X-23383809Y-32458095D01*
X-23431428Y-32410476D01*
X-23479047Y-32315238D01*
%TO.C,D9*%
X-6547619Y23738095D02*
X-7547619Y23738095D01*
X-7547619Y23500000D01*
X-7500000Y23357142D01*
X-7404761Y23261904D01*
X-7309523Y23214285D01*
X-7119047Y23166666D01*
X-6976190Y23166666D01*
X-6785714Y23214285D01*
X-6690476Y23261904D01*
X-6595238Y23357142D01*
X-6547619Y23500000D01*
X-6547619Y23738095D01*
X-6547619Y22690476D02*
X-6547619Y22500000D01*
X-6595238Y22404761D01*
X-6642857Y22357142D01*
X-6785714Y22261904D01*
X-6976190Y22214285D01*
X-7357142Y22214285D01*
X-7452380Y22261904D01*
X-7500000Y22309523D01*
X-7547619Y22404761D01*
X-7547619Y22595238D01*
X-7500000Y22690476D01*
X-7452380Y22738095D01*
X-7357142Y22785714D01*
X-7119047Y22785714D01*
X-7023809Y22738095D01*
X-6976190Y22690476D01*
X-6928571Y22595238D01*
X-6928571Y22404761D01*
X-6976190Y22309523D01*
X-7023809Y22261904D01*
X-7119047Y22214285D01*
%TO.C,D10*%
X-3907619Y7494285D02*
X-4907619Y7494285D01*
X-4907619Y7256190D01*
X-4860000Y7113333D01*
X-4764761Y7018095D01*
X-4669523Y6970476D01*
X-4479047Y6922857D01*
X-4336190Y6922857D01*
X-4145714Y6970476D01*
X-4050476Y7018095D01*
X-3955238Y7113333D01*
X-3907619Y7256190D01*
X-3907619Y7494285D01*
X-3907619Y5970476D02*
X-3907619Y6541904D01*
X-3907619Y6256190D02*
X-4907619Y6256190D01*
X-4764761Y6351428D01*
X-4669523Y6446666D01*
X-4621904Y6541904D01*
X-4907619Y5351428D02*
X-4907619Y5256190D01*
X-4860000Y5160952D01*
X-4812380Y5113333D01*
X-4717142Y5065714D01*
X-4526666Y5018095D01*
X-4288571Y5018095D01*
X-4098095Y5065714D01*
X-4002857Y5113333D01*
X-3955238Y5160952D01*
X-3907619Y5256190D01*
X-3907619Y5351428D01*
X-3955238Y5446666D01*
X-4002857Y5494285D01*
X-4098095Y5541904D01*
X-4288571Y5589523D01*
X-4526666Y5589523D01*
X-4717142Y5541904D01*
X-4812380Y5494285D01*
X-4860000Y5446666D01*
X-4907619Y5351428D01*
%TO.C,D11*%
X-3907619Y-11505714D02*
X-4907619Y-11505714D01*
X-4907619Y-11743809D01*
X-4860000Y-11886666D01*
X-4764761Y-11981904D01*
X-4669523Y-12029523D01*
X-4479047Y-12077142D01*
X-4336190Y-12077142D01*
X-4145714Y-12029523D01*
X-4050476Y-11981904D01*
X-3955238Y-11886666D01*
X-3907619Y-11743809D01*
X-3907619Y-11505714D01*
X-3907619Y-13029523D02*
X-3907619Y-12458095D01*
X-3907619Y-12743809D02*
X-4907619Y-12743809D01*
X-4764761Y-12648571D01*
X-4669523Y-12553333D01*
X-4621904Y-12458095D01*
X-3907619Y-13981904D02*
X-3907619Y-13410476D01*
X-3907619Y-13696190D02*
X-4907619Y-13696190D01*
X-4764761Y-13600952D01*
X-4669523Y-13505714D01*
X-4621904Y-13410476D01*
%TO.C,D12*%
X-3907619Y-30505714D02*
X-4907619Y-30505714D01*
X-4907619Y-30743809D01*
X-4860000Y-30886666D01*
X-4764761Y-30981904D01*
X-4669523Y-31029523D01*
X-4479047Y-31077142D01*
X-4336190Y-31077142D01*
X-4145714Y-31029523D01*
X-4050476Y-30981904D01*
X-3955238Y-30886666D01*
X-3907619Y-30743809D01*
X-3907619Y-30505714D01*
X-3907619Y-32029523D02*
X-3907619Y-31458095D01*
X-3907619Y-31743809D02*
X-4907619Y-31743809D01*
X-4764761Y-31648571D01*
X-4669523Y-31553333D01*
X-4621904Y-31458095D01*
X-4812380Y-32410476D02*
X-4860000Y-32458095D01*
X-4907619Y-32553333D01*
X-4907619Y-32791428D01*
X-4860000Y-32886666D01*
X-4812380Y-32934285D01*
X-4717142Y-32981904D01*
X-4621904Y-32981904D01*
X-4479047Y-32934285D01*
X-3907619Y-32362857D01*
X-3907619Y-32981904D01*
%TO.C,D13*%
X15092380Y26494285D02*
X14092380Y26494285D01*
X14092380Y26256190D01*
X14140000Y26113333D01*
X14235238Y26018095D01*
X14330476Y25970476D01*
X14520952Y25922857D01*
X14663809Y25922857D01*
X14854285Y25970476D01*
X14949523Y26018095D01*
X15044761Y26113333D01*
X15092380Y26256190D01*
X15092380Y26494285D01*
X15092380Y24970476D02*
X15092380Y25541904D01*
X15092380Y25256190D02*
X14092380Y25256190D01*
X14235238Y25351428D01*
X14330476Y25446666D01*
X14378095Y25541904D01*
X14092380Y24637142D02*
X14092380Y24018095D01*
X14473333Y24351428D01*
X14473333Y24208571D01*
X14520952Y24113333D01*
X14568571Y24065714D01*
X14663809Y24018095D01*
X14901904Y24018095D01*
X14997142Y24065714D01*
X15044761Y24113333D01*
X15092380Y24208571D01*
X15092380Y24494285D01*
X15044761Y24589523D01*
X14997142Y24637142D01*
%TO.C,D14*%
X15092380Y7494285D02*
X14092380Y7494285D01*
X14092380Y7256190D01*
X14140000Y7113333D01*
X14235238Y7018095D01*
X14330476Y6970476D01*
X14520952Y6922857D01*
X14663809Y6922857D01*
X14854285Y6970476D01*
X14949523Y7018095D01*
X15044761Y7113333D01*
X15092380Y7256190D01*
X15092380Y7494285D01*
X15092380Y5970476D02*
X15092380Y6541904D01*
X15092380Y6256190D02*
X14092380Y6256190D01*
X14235238Y6351428D01*
X14330476Y6446666D01*
X14378095Y6541904D01*
X14425714Y5113333D02*
X15092380Y5113333D01*
X14044761Y5351428D02*
X14759047Y5589523D01*
X14759047Y4970476D01*
%TO.C,D15*%
X15092380Y-11505714D02*
X14092380Y-11505714D01*
X14092380Y-11743809D01*
X14140000Y-11886666D01*
X14235238Y-11981904D01*
X14330476Y-12029523D01*
X14520952Y-12077142D01*
X14663809Y-12077142D01*
X14854285Y-12029523D01*
X14949523Y-11981904D01*
X15044761Y-11886666D01*
X15092380Y-11743809D01*
X15092380Y-11505714D01*
X15092380Y-13029523D02*
X15092380Y-12458095D01*
X15092380Y-12743809D02*
X14092380Y-12743809D01*
X14235238Y-12648571D01*
X14330476Y-12553333D01*
X14378095Y-12458095D01*
X14092380Y-13934285D02*
X14092380Y-13458095D01*
X14568571Y-13410476D01*
X14520952Y-13458095D01*
X14473333Y-13553333D01*
X14473333Y-13791428D01*
X14520952Y-13886666D01*
X14568571Y-13934285D01*
X14663809Y-13981904D01*
X14901904Y-13981904D01*
X14997142Y-13934285D01*
X15044761Y-13886666D01*
X15092380Y-13791428D01*
X15092380Y-13553333D01*
X15044761Y-13458095D01*
X14997142Y-13410476D01*
%TO.C,D16*%
X15092380Y-30505714D02*
X14092380Y-30505714D01*
X14092380Y-30743809D01*
X14140000Y-30886666D01*
X14235238Y-30981904D01*
X14330476Y-31029523D01*
X14520952Y-31077142D01*
X14663809Y-31077142D01*
X14854285Y-31029523D01*
X14949523Y-30981904D01*
X15044761Y-30886666D01*
X15092380Y-30743809D01*
X15092380Y-30505714D01*
X15092380Y-32029523D02*
X15092380Y-31458095D01*
X15092380Y-31743809D02*
X14092380Y-31743809D01*
X14235238Y-31648571D01*
X14330476Y-31553333D01*
X14378095Y-31458095D01*
X14092380Y-32886666D02*
X14092380Y-32696190D01*
X14140000Y-32600952D01*
X14187619Y-32553333D01*
X14330476Y-32458095D01*
X14520952Y-32410476D01*
X14901904Y-32410476D01*
X14997142Y-32458095D01*
X15044761Y-32505714D01*
X15092380Y-32600952D01*
X15092380Y-32791428D01*
X15044761Y-32886666D01*
X14997142Y-32934285D01*
X14901904Y-32981904D01*
X14663809Y-32981904D01*
X14568571Y-32934285D01*
X14520952Y-32886666D01*
X14473333Y-32791428D01*
X14473333Y-32600952D01*
X14520952Y-32505714D01*
X14568571Y-32458095D01*
X14663809Y-32410476D01*
%TO.C,D17*%
X34092380Y26494285D02*
X33092380Y26494285D01*
X33092380Y26256190D01*
X33140000Y26113333D01*
X33235238Y26018095D01*
X33330476Y25970476D01*
X33520952Y25922857D01*
X33663809Y25922857D01*
X33854285Y25970476D01*
X33949523Y26018095D01*
X34044761Y26113333D01*
X34092380Y26256190D01*
X34092380Y26494285D01*
X34092380Y24970476D02*
X34092380Y25541904D01*
X34092380Y25256190D02*
X33092380Y25256190D01*
X33235238Y25351428D01*
X33330476Y25446666D01*
X33378095Y25541904D01*
X33092380Y24637142D02*
X33092380Y23970476D01*
X34092380Y24399047D01*
%TO.C,D18*%
X34092380Y7494285D02*
X33092380Y7494285D01*
X33092380Y7256190D01*
X33140000Y7113333D01*
X33235238Y7018095D01*
X33330476Y6970476D01*
X33520952Y6922857D01*
X33663809Y6922857D01*
X33854285Y6970476D01*
X33949523Y7018095D01*
X34044761Y7113333D01*
X34092380Y7256190D01*
X34092380Y7494285D01*
X34092380Y5970476D02*
X34092380Y6541904D01*
X34092380Y6256190D02*
X33092380Y6256190D01*
X33235238Y6351428D01*
X33330476Y6446666D01*
X33378095Y6541904D01*
X33520952Y5399047D02*
X33473333Y5494285D01*
X33425714Y5541904D01*
X33330476Y5589523D01*
X33282857Y5589523D01*
X33187619Y5541904D01*
X33140000Y5494285D01*
X33092380Y5399047D01*
X33092380Y5208571D01*
X33140000Y5113333D01*
X33187619Y5065714D01*
X33282857Y5018095D01*
X33330476Y5018095D01*
X33425714Y5065714D01*
X33473333Y5113333D01*
X33520952Y5208571D01*
X33520952Y5399047D01*
X33568571Y5494285D01*
X33616190Y5541904D01*
X33711428Y5589523D01*
X33901904Y5589523D01*
X33997142Y5541904D01*
X34044761Y5494285D01*
X34092380Y5399047D01*
X34092380Y5208571D01*
X34044761Y5113333D01*
X33997142Y5065714D01*
X33901904Y5018095D01*
X33711428Y5018095D01*
X33616190Y5065714D01*
X33568571Y5113333D01*
X33520952Y5208571D01*
%TO.C,D19*%
X34092380Y-11505714D02*
X33092380Y-11505714D01*
X33092380Y-11743809D01*
X33140000Y-11886666D01*
X33235238Y-11981904D01*
X33330476Y-12029523D01*
X33520952Y-12077142D01*
X33663809Y-12077142D01*
X33854285Y-12029523D01*
X33949523Y-11981904D01*
X34044761Y-11886666D01*
X34092380Y-11743809D01*
X34092380Y-11505714D01*
X34092380Y-13029523D02*
X34092380Y-12458095D01*
X34092380Y-12743809D02*
X33092380Y-12743809D01*
X33235238Y-12648571D01*
X33330476Y-12553333D01*
X33378095Y-12458095D01*
X34092380Y-13505714D02*
X34092380Y-13696190D01*
X34044761Y-13791428D01*
X33997142Y-13839047D01*
X33854285Y-13934285D01*
X33663809Y-13981904D01*
X33282857Y-13981904D01*
X33187619Y-13934285D01*
X33140000Y-13886666D01*
X33092380Y-13791428D01*
X33092380Y-13600952D01*
X33140000Y-13505714D01*
X33187619Y-13458095D01*
X33282857Y-13410476D01*
X33520952Y-13410476D01*
X33616190Y-13458095D01*
X33663809Y-13505714D01*
X33711428Y-13600952D01*
X33711428Y-13791428D01*
X33663809Y-13886666D01*
X33616190Y-13934285D01*
X33520952Y-13981904D01*
%TO.C,D20*%
X34092380Y-30505714D02*
X33092380Y-30505714D01*
X33092380Y-30743809D01*
X33140000Y-30886666D01*
X33235238Y-30981904D01*
X33330476Y-31029523D01*
X33520952Y-31077142D01*
X33663809Y-31077142D01*
X33854285Y-31029523D01*
X33949523Y-30981904D01*
X34044761Y-30886666D01*
X34092380Y-30743809D01*
X34092380Y-30505714D01*
X33187619Y-31458095D02*
X33140000Y-31505714D01*
X33092380Y-31600952D01*
X33092380Y-31839047D01*
X33140000Y-31934285D01*
X33187619Y-31981904D01*
X33282857Y-32029523D01*
X33378095Y-32029523D01*
X33520952Y-31981904D01*
X34092380Y-31410476D01*
X34092380Y-32029523D01*
X33092380Y-32648571D02*
X33092380Y-32743809D01*
X33140000Y-32839047D01*
X33187619Y-32886666D01*
X33282857Y-32934285D01*
X33473333Y-32981904D01*
X33711428Y-32981904D01*
X33901904Y-32934285D01*
X33997142Y-32886666D01*
X34044761Y-32839047D01*
X34092380Y-32743809D01*
X34092380Y-32648571D01*
X34044761Y-32553333D01*
X33997142Y-32505714D01*
X33901904Y-32458095D01*
X33711428Y-32410476D01*
X33473333Y-32410476D01*
X33282857Y-32458095D01*
X33187619Y-32505714D01*
X33140000Y-32553333D01*
X33092380Y-32648571D01*
%TD*%
M02*
