M48
; DRILL file {KiCad 5.1.9+dfsg1-1+deb11u1} date Fri Nov  3 18:58:26 2023
; FORMAT={-:-/ absolute / metric / decimal}
; #@! TF.CreationDate,2023-11-03T18:58:26+01:00
; #@! TF.GenerationSoftware,Kicad,Pcbnew,5.1.9+dfsg1-1+deb11u1
FMAT,2
METRIC
T1C0.300
T2C0.600
T3C1.000
T4C1.500
T5C0.650
T6C1.700
T7C3.200
T8C4.000
%
G90
G05
T1
X-45.0Y29.0
X-45.0Y9.0
X-45.0Y-9.0
X-45.0Y-28.0
X-29.0Y45.9
X-28.0Y-45.0
X-19.8Y26.0
X-19.8Y24.5
X-18.2Y26.0
X-18.2Y24.5
X-13.9Y22.0
X-13.9Y20.8
X-13.9Y19.1
X-13.9Y17.9
X-13.9Y16.6
X-13.9Y5.2
X-13.9Y4.0
X-13.9Y-13.8
X-13.9Y-15.0
X-13.31Y20.19
X-12.7Y22.0
X-12.7Y20.8
X-12.7Y19.1
X-12.7Y17.9
X-12.7Y16.6
X-12.7Y5.2
X-12.7Y4.0
X-12.7Y-13.8
X-12.7Y-15.0
X-9.9Y45.9
X-9.0Y-45.0
X-7.6Y21.3
X-7.2Y20.6
X-6.0Y40.5
X-6.0Y39.0
X-5.4Y23.1
X-4.4Y41.7
X-4.1Y41.0
X-2.7Y22.5
X-2.3Y35.5
X-2.2Y19.5
X-1.6Y35.5
X-1.25Y43.49
X-1.17Y38.84
X-0.9Y23.2
X-0.75Y18.3
X-0.7Y35.5
X-0.6Y20.7
X-0.5Y28.0
X0.0Y35.5
X0.0Y13.45
X0.3Y24.2
X0.35Y22.6
X0.8Y19.45
X1.2Y21.1
X1.4Y21.7
X2.0Y27.1
X2.0Y24.3
X2.2Y15.95
X3.0Y23.2
X3.0Y19.35
X3.48Y39.41
X3.587Y45.6
X4.05Y25.35
X5.1Y5.2
X5.1Y4.0
X5.1Y-13.7
X5.1Y-14.9
X5.15Y34.78
X5.15Y36.64
X5.15Y35.71
X5.4Y23.7
X5.7Y27.4
X6.2Y29.1
X6.3Y5.2
X6.3Y4.0
X6.3Y-13.7
X6.3Y-14.9
X6.5Y39.3
X6.5Y33.5
X6.6Y38.0
X6.7Y27.0
X6.9Y28.3
X7.3Y32.8
X8.3Y25.2
X8.3Y19.0
X9.3Y24.2
X9.5Y26.0
X10.0Y45.9
X10.0Y-45.0
X10.3Y23.0
X10.6Y20.6
X10.8Y24.7
X12.85Y22.75
X13.0Y20.7
X15.2Y5.2
X15.2Y4.0
X15.4Y-13.8
X15.4Y-14.9
X16.0Y5.8
X16.0Y3.4
X16.0Y-13.2
X16.0Y-15.6
X16.4Y5.2
X16.4Y4.0
X16.5Y13.2
X16.5Y-13.8
X16.5Y-14.9
X16.8Y5.8
X16.8Y3.4
X17.6Y5.2
X17.6Y4.0
X17.7Y13.3
X24.1Y24.2
X24.1Y23.0
X24.1Y5.2
X24.1Y4.0
X24.1Y-13.8
X24.1Y-15.0
X25.3Y24.2
X25.3Y23.0
X25.3Y5.2
X25.3Y4.0
X25.3Y-13.8
X25.3Y-15.0
X28.0Y45.9
X29.0Y-45.0
X45.0Y29.0
X45.0Y10.0
X45.0Y-9.0
X45.0Y-28.0
T3
X-19.0Y22.81
X-19.0Y20.27
X-19.0Y17.73
X-19.0Y15.19
X19.0Y33.58
X19.0Y31.04
X19.0Y28.5
T4
X-32.31Y31.04
X-32.31Y12.04
X-32.31Y-6.96
X-32.31Y-25.96
X-25.96Y33.58
X-25.96Y14.58
X-25.96Y-4.42
X-25.96Y-23.42
X-13.31Y31.04
X-13.31Y12.04
X-13.31Y-6.96
X-13.31Y-25.96
X-6.96Y33.58
X-6.96Y14.58
X-6.96Y-4.42
X-6.96Y-23.42
X5.69Y31.04
X5.69Y12.04
X5.69Y-6.96
X5.69Y-25.96
X12.04Y33.58
X12.04Y14.58
X12.04Y-4.42
X12.04Y-23.42
X24.69Y31.04
X24.69Y12.04
X24.69Y-6.96
X24.69Y-25.96
X31.04Y33.58
X31.04Y14.58
X31.04Y-4.42
X31.04Y-23.42
T5
X-2.89Y43.8
X2.89Y43.8
T6
X-33.58Y28.5
X-33.58Y9.5
X-33.58Y-9.5
X-33.58Y-28.5
X-23.42Y28.5
X-23.42Y9.5
X-23.42Y-9.5
X-23.42Y-28.5
X-14.58Y28.5
X-14.58Y9.5
X-14.58Y-9.5
X-14.58Y-28.5
X-4.42Y28.5
X-4.42Y9.5
X-4.42Y-9.5
X-4.42Y-28.5
X4.42Y28.5
X4.42Y9.5
X4.42Y-9.5
X4.42Y-28.5
X14.58Y28.5
X14.58Y9.5
X14.58Y-9.5
X14.58Y-28.5
X23.42Y28.5
X23.42Y9.5
X23.42Y-9.5
X23.42Y-28.5
X33.58Y28.5
X33.58Y9.5
X33.58Y-9.5
X33.58Y-28.5
T7
X-43.0Y43.0
X-43.0Y-43.0
X43.0Y43.0
X43.0Y-43.0
T8
X-28.5Y28.5
X-28.5Y9.5
X-28.5Y-9.5
X-28.5Y-28.5
X-9.5Y28.5
X-9.5Y9.5
X-9.5Y-9.5
X-9.5Y-28.5
X9.5Y28.5
X9.5Y9.5
X9.5Y-9.5
X9.5Y-28.5
X28.5Y28.5
X28.5Y9.5
X28.5Y-9.5
X28.5Y-28.5
T2
G00X-4.32Y47.75
M15
G01X-4.32Y47.15
M16
G05
G00X-4.32Y43.82
M15
G01X-4.32Y42.72
M16
G05
G00X4.32Y47.75
M15
G01X4.32Y47.15
M16
G05
G00X4.32Y43.82
M15
G01X4.32Y42.72
M16
G05
T0
M30
