<?xml version="1.0" encoding="UTF-8" standalone="no"?>
<svg
   xmlns:dc="http://purl.org/dc/elements/1.1/"
   xmlns:cc="http://creativecommons.org/ns#"
   xmlns:rdf="http://www.w3.org/1999/02/22-rdf-syntax-ns#"
   xmlns:svg="http://www.w3.org/2000/svg"
   xmlns="http://www.w3.org/2000/svg"
   xmlns:sodipodi="http://sodipodi.sourceforge.net/DTD/sodipodi-0.dtd"
   xmlns:inkscape="http://www.inkscape.org/namespaces/inkscape"
   width="18mm"
   height="18mm"
   viewBox="0 0 18 18"
   version="1.1"
   id="svg10654"
   inkscape:version="1.0.2 (e86c870879, 2021-01-15)"
   sodipodi:docname="g0.svg">
  <defs
     id="defs10648">
    <linearGradient
       id="linearGradient3778">
      <stop
         style="stop-color:#e9b515;stop-opacity:1;"
         offset="0"
         id="stop3780" />
      <stop
         id="stop3786"
         offset="0.80930263"
         style="stop-color:#eec64b;stop-opacity:1;" />
      <stop
         style="stop-color:#ffffff;stop-opacity:1;"
         offset="1"
         id="stop3782" />
    </linearGradient>
  </defs>
  <sodipodi:namedview
     id="base"
     pagecolor="#ffffff"
     bordercolor="#666666"
     borderopacity="1.0"
     inkscape:pageopacity="0.0"
     inkscape:pageshadow="2"
     inkscape:zoom="5.6"
     inkscape:cx="14.413334"
     inkscape:cy="17.303872"
     inkscape:document-units="mm"
     inkscape:current-layer="layer1"
     inkscape:document-rotation="0"
     showgrid="false"
     inkscape:snap-smooth-nodes="true"
     inkscape:snap-page="true"
     inkscape:snap-object-midpoints="true"
     inkscape:window-width="1364"
     inkscape:window-height="750"
     inkscape:window-x="1"
     inkscape:window-y="17"
     inkscape:window-maximized="0" />
  <metadata
     id="metadata10651">
    <rdf:RDF>
      <cc:Work
         rdf:about="">
        <dc:format>image/svg+xml</dc:format>
        <dc:type
           rdf:resource="http://purl.org/dc/dcmitype/StillImage" />
        <dc:title></dc:title>
      </cc:Work>
    </rdf:RDF>
  </metadata>
  <g
     inkscape:label="Layer 1"
     inkscape:groupmode="layer"
     id="layer1">
    <path
       id="path11508"
       style="fill:#828282;fill-opacity:1;stroke:none;stroke-width:0.264583"
       d="M 9.011144,2.9041581 C 8.4397695,2.9041688 7.9083352,3.0692161 7.4063886,3.4056441 6.9044353,3.7367227 6.4777093,4.1822744 6.1359572,4.7429403 5.7942011,5.298292 5.5311573,5.9508393 5.3335795,6.693164 5.1360056,7.4301027 5.0326878,8.1990125 5.0326878,8.9999999 c 0,1.0679821 0.1704115,2.0627891 0.5014861,2.9866281 0.3310719,0.923805 0.801214,1.668535 1.4153052,2.239971 0.6194244,0.571364 1.3033928,0.858099 2.0616649,0.858099 0.7529186,0 1.44177,-0.28677 2.050521,-0.858099 0.614083,-0.571436 1.084222,-1.316166 1.415305,-2.239971 0.331065,-0.923839 0.490331,-1.918646 0.490342,-2.9866281 C 12.967301,7.926668 12.808035,6.9261031 12.47697,6.0022276 12.145887,5.0730742 11.675748,4.3283072 11.061665,3.7622565 10.452914,3.1908929 9.7640626,2.9041688 9.011144,2.9041581 Z m 0,0.7132246 c 0.4058251,0 0.8137457,0.1400235 1.203567,0.412333 0.395143,0.26696 0.737363,0.6275674 1.036404,1.0921252 0.304365,0.4645242 0.542807,1.0379909 0.724369,1.7161968 0.18689,0.6781695 0.289737,1.3983123 0.289747,2.1619622 -10e-6,0.6087012 -0.06664,1.1888571 -0.18945,1.7496291 -0.11749,0.560631 -0.282095,1.060851 -0.490342,1.493314 -0.208266,0.432536 -0.452042,0.810937 -0.724369,1.136702 -0.272341,0.320344 -0.559999,0.564696 -0.8803862,0.735513 -0.3150598,0.170888 -0.6438133,0.256315 -0.9695398,0.256315 -0.4111772,0 -0.8084149,-0.128839 -1.2035665,-0.401189 C 7.4124232,13.697975 7.0644002,13.320465 6.7600288,12.855871 6.4556519,12.391313 6.2114122,11.823674 6.0245159,11.150818 5.8429596,10.472613 5.7459125,9.7582653 5.7459125,8.9999999 c 0,-0.7636136 0.097043,-1.4837927 0.2786034,-2.1619622 C 6.2114122,6.1598669 6.4556519,5.5864002 6.7600288,5.1218409 7.0644002,4.6572831 7.4124232,4.2967106 7.8075775,4.0297157 8.2027291,3.7574062 8.5999668,3.6173827 9.011144,3.6173827 Z" />
  </g>
</svg>
