<?xml version="1.0" encoding="UTF-8" standalone="no"?>
<svg
   xmlns:dc="http://purl.org/dc/elements/1.1/"
   xmlns:cc="http://creativecommons.org/ns#"
   xmlns:rdf="http://www.w3.org/1999/02/22-rdf-syntax-ns#"
   xmlns:svg="http://www.w3.org/2000/svg"
   xmlns="http://www.w3.org/2000/svg"
   xmlns:sodipodi="http://sodipodi.sourceforge.net/DTD/sodipodi-0.dtd"
   xmlns:inkscape="http://www.inkscape.org/namespaces/inkscape"
   width="18mm"
   height="18mm"
   viewBox="0 0 18 18"
   version="1.1"
   id="svg10654"
   inkscape:version="1.0.2 (e86c870879, 2021-01-15)"
   sodipodi:docname="g5.svg">
  <defs
     id="defs10648">
    <linearGradient
       id="linearGradient3778">
      <stop
         style="stop-color:#e9b515;stop-opacity:1;"
         offset="0"
         id="stop3780" />
      <stop
         id="stop3786"
         offset="0.80930263"
         style="stop-color:#eec64b;stop-opacity:1;" />
      <stop
         style="stop-color:#ffffff;stop-opacity:1;"
         offset="1"
         id="stop3782" />
    </linearGradient>
  </defs>
  <sodipodi:namedview
     id="base"
     pagecolor="#ffffff"
     bordercolor="#666666"
     borderopacity="1.0"
     inkscape:pageopacity="0.0"
     inkscape:pageshadow="2"
     inkscape:zoom="5.6"
     inkscape:cx="14.413334"
     inkscape:cy="17.303872"
     inkscape:document-units="mm"
     inkscape:current-layer="layer1"
     inkscape:document-rotation="0"
     showgrid="false"
     inkscape:snap-smooth-nodes="true"
     inkscape:snap-page="true"
     inkscape:snap-object-midpoints="true"
     inkscape:window-width="1364"
     inkscape:window-height="750"
     inkscape:window-x="1"
     inkscape:window-y="17"
     inkscape:window-maximized="0" />
  <metadata
     id="metadata10651">
    <rdf:RDF>
      <cc:Work
         rdf:about="">
        <dc:format>image/svg+xml</dc:format>
        <dc:type
           rdf:resource="http://purl.org/dc/dcmitype/StillImage" />
        <dc:title></dc:title>
      </cc:Work>
    </rdf:RDF>
  </metadata>
  <g
     inkscape:label="Layer 1"
     inkscape:groupmode="layer"
     id="layer1">
    <path
       style="fill:#a1a1a1;fill-opacity:1;stroke:none;stroke-width:0.264584"
       d="M 5.8016328,3.0044558 5.3001472,9 H 6.0913804 C 6.3850717,8.4339737 6.7934576,7.9879808 7.3060911,7.6515593 7.8187179,7.309814 8.3742986,7.1389366 8.9777109,7.1389298 c 0.9077784,6.8e-6 1.6829891,0.3426902 2.3291241,1.047548 0.65146,0.6995352 0.980677,1.5539168 0.980684,2.5631512 -7e-6,1.014583 -0.329224,1.880578 -0.980684,2.585439 -0.646135,0.70487 -1.4213457,1.058694 -2.3291241,1.058694 -0.7956487,0 -1.5033019,-0.286264 -2.1173849,-0.846956 C 6.2515736,12.98612 5.8789468,12.284271 5.7347685,11.440565 H 5.0103996 c 0.1441743,1.030603 0.5897076,1.902863 1.3372955,2.607728 0.7529227,0.704866 1.6314519,1.058694 2.6300158,1.058694 0.736901,0 1.4141391,-0.195021 2.0282331,-0.579496 0.619422,-0.38981 1.096297,-0.914514 1.448738,-1.571323 0.352425,-0.662143 0.53491,-1.382336 0.534918,-2.161962 -8e-6,-0.784961 -0.182493,-1.5109522 -0.534918,-2.1731068 C 12.102241,7.9536206 11.625366,7.4284523 11.005944,7.0386327 10.39185,6.6488266 9.7146119,6.4591443 8.9777109,6.4591376 8.4383783,6.4591443 7.9199451,6.5691876 7.4286759,6.7934618 6.9427428,7.0177455 6.509747,7.3290825 6.135957,7.7295688 L 6.4702813,3.7288247 H 11.56315 l 0.245171,-0.7243689 z"
       id="path11492" />
  </g>
</svg>
