<?xml version="1.0" encoding="UTF-8" standalone="no"?>
<svg
   xmlns:dc="http://purl.org/dc/elements/1.1/"
   xmlns:cc="http://creativecommons.org/ns#"
   xmlns:rdf="http://www.w3.org/1999/02/22-rdf-syntax-ns#"
   xmlns:svg="http://www.w3.org/2000/svg"
   xmlns="http://www.w3.org/2000/svg"
   xmlns:sodipodi="http://sodipodi.sourceforge.net/DTD/sodipodi-0.dtd"
   xmlns:inkscape="http://www.inkscape.org/namespaces/inkscape"
   width="18mm"
   height="18mm"
   viewBox="0 0 18 18"
   version="1.1"
   id="svg10654"
   inkscape:version="1.0.2 (e86c870879, 2021-01-15)"
   sodipodi:docname="glyphs.svg">
  <defs
     id="defs10648">
    <linearGradient
       id="linearGradient3778">
      <stop
         style="stop-color:#e9b515;stop-opacity:1;"
         offset="0"
         id="stop3780" />
      <stop
         id="stop3786"
         offset="0.80930263"
         style="stop-color:#eec64b;stop-opacity:1;" />
      <stop
         style="stop-color:#ffffff;stop-opacity:1;"
         offset="1"
         id="stop3782" />
    </linearGradient>
  </defs>
  <sodipodi:namedview
     id="base"
     pagecolor="#ffffff"
     bordercolor="#666666"
     borderopacity="1.0"
     inkscape:pageopacity="0.0"
     inkscape:pageshadow="2"
     inkscape:zoom="3.959798"
     inkscape:cx="14.413334"
     inkscape:cy="-8.9246997"
     inkscape:document-units="mm"
     inkscape:current-layer="layer1"
     inkscape:document-rotation="0"
     showgrid="false"
     inkscape:snap-smooth-nodes="true"
     inkscape:snap-page="true"
     inkscape:snap-object-midpoints="true"
     inkscape:window-width="1364"
     inkscape:window-height="750"
     inkscape:window-x="1"
     inkscape:window-y="17"
     inkscape:window-maximized="0" />
  <metadata
     id="metadata10651">
    <rdf:RDF>
      <cc:Work
         rdf:about="">
        <dc:format>image/svg+xml</dc:format>
        <dc:type
           rdf:resource="http://purl.org/dc/dcmitype/StillImage" />
        <dc:title></dc:title>
      </cc:Work>
    </rdf:RDF>
  </metadata>
  <g
     inkscape:label="Layer 1"
     inkscape:groupmode="layer"
     id="layer1">
    <g
       id="g11540"
       style="stroke-width:0.741935"
       transform="matrix(1.3478261,0,0,1.3478261,8.9999999,8.9999999)">
      <path
         id="path11287"
         style="fill:#585858;fill-opacity:1;stroke:none;stroke-width:0.196304"
         d="m 1.471744,-2.9600258 v 5.208984 h -3.952212 z m 0.529167,-1.587501 -5.547981,7.325651 h 5.018814 v 1.653646 H 2.000911 V 2.7781242 H 2.80293 L 2.993099,2.2489572 H 2.000911 Z" />
      <path
         id="path11285"
         style="fill:#727272;fill-opacity:1;stroke:none;stroke-width:0.196304"
         d="m -0.024805,-1.4800529 c 0.673513,5e-6 1.248672,0.26252 1.72806,0.785482 0.483343,0.52297 0.727599,1.157211 0.727604,1.909961 -5e-6,0.748794 -0.244261,1.386996 -0.727604,1.909961 -0.479388,0.522964 -1.054547,0.785481 -1.72806,0.785481 -0.669557,0 -1.244716,-0.262517 -1.72806,-0.785481 -0.479388,-0.522965 -0.719336,-1.161167 -0.719336,-1.909961 0,-0.75275 0.239948,-1.386991 0.719336,-1.909961 0.483344,-0.522962 1.058503,-0.785477 1.72806,-0.785482 z m 0.165365,-3.026134 c -0.305068,0.455623 -0.658189,0.962742 -1.058334,1.521354 -0.40015,0.558631 -0.707453,0.975831 -0.909505,1.265039 -0.202057,0.289224 -0.401873,0.615127 -0.611849,0.975651 -0.206018,0.360535 -0.355018,0.695397 -0.438216,1.000456 -0.0832,0.301104 -0.124024,0.618397 -0.124024,0.959115 0,0.578434 0.135393,1.112768 0.396875,1.604036 0.265444,0.491273 0.619255,0.884873 1.07487,1.174089 0.459574,0.289216 0.962041,0.438216 1.504818,0.438216 0.546732,0 1.0492,-0.149 1.504818,-0.438216 0.45957,-0.289216 0.82165,-0.682816 1.083138,-1.174089 0.261477,-0.491268 0.388601,-1.025602 0.388606,-1.604036 -5e-6,-0.57843 -0.127129,-1.112761 -0.388606,-1.604037 -0.261488,-0.491265 -0.623568,-0.876599 -1.083138,-1.16582 -0.455618,-0.293172 -0.958086,-0.438211 -1.504818,-0.438216 -0.340723,5e-6 -0.676275,0.06374 -1.016992,0.198437 l 1.81901,-2.711979 z" />
      <path
         id="path11267"
         style="fill:#888888;fill-opacity:1;stroke:none;stroke-width:0.196304"
         d="m 0.008268,-0.4051439 c 0.598236,6e-6 1.114311,0.213085 1.546159,0.644922 0.431837,0.427884 0.653185,0.939655 0.65319,1.537891 -5e-6,0.606168 -0.221353,1.13516 -0.65319,1.570963 -0.431848,0.431845 -0.947923,0.644925 -1.546159,0.644922 -0.610129,3e-6 -1.130856,-0.213077 -1.562695,-0.644922 -0.431845,-0.435803 -0.644925,-0.964795 -0.644922,-1.570963 -3e-6,-0.598236 0.213077,-1.110007 0.644922,-1.537891 0.435803,-0.431837 0.956527,-0.644916 1.562695,-0.644922 z m -0.157096,-3.580156 c 0.05293,-0.0047 0.102126,0 0.157096,0 0.427876,1.1e-5 0.794607,0.141086 1.099674,0.438216 0.30902,0.297148 0.463019,0.658884 0.463021,1.07487 -2e-6,0.419965 -0.149693,0.782045 -0.454752,1.083138 -0.305068,0.301109 -0.676106,0.44649 -1.107943,0.446484 -0.439769,6e-6 -0.807188,-0.145375 -1.116211,-0.446484 -0.309028,-0.301093 -0.471292,-0.663173 -0.471289,-1.083138 -3e-6,-0.415986 0.162261,-0.777722 0.471289,-1.07487 0.270396,-0.259987 0.588616,-0.405709 0.959115,-0.438216 z m 0.157096,-0.529193 c -0.582396,8e-6 -1.080556,0.195172 -1.49655,0.595312 -0.412035,0.400156 -0.611849,0.884365 -0.611849,1.44694 0,0.368462 0.0906,0.704014 0.272852,1.016992 0.186206,0.312994 0.430808,0.561557 0.735872,0.735873 -0.49127,0.217908 -0.889526,0.548806 -1.190625,1.000455 -0.29714,0.447694 -0.446487,0.945857 -0.446484,1.49655 -3e-6,0.76068 0.262861,1.416452 0.79375,1.951302 0.53485,0.530889 1.182354,0.79375 1.943034,0.79375 0.491265,0 0.948259,-0.122129 1.364258,-0.363802 0.419952,-0.245634 0.754814,-0.580499 1.000455,-1.000456 0.245629,-0.419954 0.363795,-0.881597 0.363802,-1.380794 -7e-6,-0.546732 -0.149695,-1.044895 -0.454752,-1.49655 -0.301109,-0.451649 -0.695053,-0.782547 -1.182357,-1.000455 0.30902,-0.174316 0.55362,-0.418574 0.735873,-0.727604 0.182239,-0.312981 0.272846,-0.652839 0.272851,-1.025261 -5e-6,-0.562575 -0.208089,-1.046784 -0.620117,-1.44694 -0.412038,-0.40014 -0.905547,-0.595304 -1.480013,-0.595312 z" />
      <path
         style="fill:#7b7b7b;fill-opacity:1;stroke:none;stroke-width:0.196304"
         d="m 0.008268,-4.5144531 c -0.471464,1.06e-5 -0.901928,0.1267883 -1.298112,0.3803385 -0.396187,0.2535687 -0.71279,0.5934234 -0.942578,1.0252604 -0.225827,0.431848 -0.338998,0.898488 -0.338998,1.405599 h 0.529167 c 0,-0.641816 0.199469,-1.180798 0.603581,-1.6205729 0.408069,-0.4437195 0.896927,-0.6614504 1.463476,-0.6614584 0.558618,8e-6 1.034212,0.2134315 1.430404,0.6531901 0.400143,0.4397742 0.603575,0.9830642 0.603581,1.6288412 -6e-6,0.324877 -0.09492,0.636831 -0.28112,0.92604204 -0.18225,0.28526 -0.417894,0.534857 -0.711068,0.760677 -0.293182,0.225832 -0.619088,0.456133 -0.975651,0.6779944 -0.352607,0.221867 -0.710036,0.45286096 -1.066601,0.69453196 -0.356569,0.237715 -0.682477,0.482661 -0.975651,0.74414 -0.29318,0.261485 -0.533131,0.569476 -0.719336,0.926042 -0.182248,0.356568 -0.272852,0.741214 -0.272852,1.149284 v 0.256315 h 5.78776 v -0.537435 h -5.258593 c 0.03565,-0.257519 0.12161,-0.502121 0.256315,-0.735872 0.134699,-0.233746 0.298,-0.442177 0.496094,-0.628386 0.202054,-0.190169 0.428394,-0.375687 0.677994,-0.553971 0.253556,-0.182242 0.520036,-0.354499 0.785482,-0.520899 0.269404,-0.166396 0.53657,-0.333999 0.802018,-0.50436196 0.265441,-0.170357 0.514692,-0.3555314 0.752409,-0.5457034 0.237707,-0.190164 0.446135,-0.381023 0.628386,-0.587044 0.182239,-0.206012 0.322971,-0.437007 0.429948,-0.694531 C 2.521286,-1.1379092 2.579682,-1.4179972 2.579687,-1.7032552 2.579682,-2.2103662 2.466509,-2.6770062 2.24069,-3.1088542 2.014857,-3.5406912 1.702562,-3.8805459 1.30638,-4.1341146 0.91019,-4.3876648 0.475763,-4.5144425 0.008268,-4.5144531 Z"
         id="path11305" />
      <path
         style="fill:#3b3b3b;fill-opacity:1;stroke:none;stroke-width:0.196304"
         d="m -2.571419,-4.4400527 -0.181901,0.537435 h 5.308203 l -3.745508,8.334375 h 0.58704498 l 3.97701802,-8.87181 z"
         id="path11273" />
      <path
         style="fill:#a1a1a1;fill-opacity:1;stroke:none;stroke-width:0.196304"
         d="M -2.372982,-4.4483069 -2.745052,9.9999994e-8 h 0.587044 C -1.940108,-0.4199549 -1.637112,-0.7508529 -1.256771,-1.0004559 c 0.380336,-0.253553 0.792541,-0.380333 1.240234,-0.380338 0.673513,5e-6 1.248669,0.254254 1.72806,0.777213 0.483341,0.51901 0.727599,1.152906 0.727604,1.901693 -5e-6,0.752755 -0.244263,1.395267 -0.727604,1.918229 -0.479391,0.522968 -1.054547,0.785482 -1.72806,0.785482 -0.59032,0 -1.115353,-0.212389 -1.570963,-0.628386 -0.451655,-0.415993 -0.72812,-0.93672 -0.835091,-1.562695 h -0.537435 c 0.106968,0.764641 0.437525,1.411801 0.992187,1.934766 0.55862,0.522965 1.210432,0.785482 1.951302,0.785482 0.546733,0 1.0492,-0.144693 1.504818,-0.429948 0.459571,-0.289214 0.813382,-0.678511 1.07487,-1.165821 0.261477,-0.491267 0.396869,-1.025604 0.396875,-1.604036 -6e-6,-0.58239 -0.135398,-1.121029 -0.396875,-1.612305 -0.261488,-0.495226 -0.615299,-0.884867 -1.07487,-1.174088 -0.455618,-0.289211 -0.958085,-0.429943 -1.504818,-0.429948 -0.40015,5e-6 -0.784794,0.08165 -1.149284,0.248047 -0.360531,0.166404 -0.681786,0.397396 -0.959114,0.694531 l 0.248047,-2.968294 h 3.77858 l 0.181901,-0.537435 z"
         id="path11492" />
      <path
         id="path11251"
         style="fill:#717171;fill-opacity:1;stroke:none;stroke-width:0.196304"
         d="m 0,-3.9935407 c 0.210899,0 0.380338,0.176635 0.380338,0.388593 0,0.10496 -0.04647,0.190474 -0.124023,0.264583 a 0.26721421,0.26721421 0 0 0 0.132291,0.45474 c 0.621517,0.127503 1.04815,0.559488 1.339454,1.116224 0.291303,0.55671 0.429947,1.233593 0.429947,1.769401 0,1.32461 1.034833,2.165403 1.21543,2.306823 v 0.636667 H 0.504362 a 0.26721421,0.26721421 0 0 0 -0.206706,0.429947 c 0.05164,0.06654 0.08268,0.154491 0.08268,0.239792 0,0.211905 -0.166124,0.372057 -0.380338,0.372057 -0.214215,0 -0.380339,-0.160099 -0.380339,-0.372057 0,-0.0853 0.03104,-0.173249 0.08268,-0.239792 a 0.26721421,0.26721421 0 0 0 -0.214974,-0.429947 h -2.860807 v -0.636667 c 0.180597,-0.14142 1.21543,-0.982213 1.21543,-2.306823 0,-0.535808 0.130376,-1.212691 0.42168,-1.769401 0.291303,-0.556736 0.726204,-0.988748 1.347721,-1.116224 a 0.26721421,0.26721421 0 0 0 0.124023,-0.45474 c -0.07755,-0.07411 -0.115755,-0.159623 -0.115755,-0.264583 0,-0.211958 0.169439,-0.38862 0.380339,-0.388593 z m 0,-0.52918 c -0.502931,0 -0.917774,0.414721 -0.917774,0.917773 0,0.116814 0.03366,0.221298 0.07441,0.322448 -0.618233,0.238601 -1.075399,0.712973 -1.364258,1.265052 -0.341688,0.653018 -0.487825,1.396683 -0.487825,2.017448 0,1.099185 -1.107943,1.992604 -1.107943,1.992656 a 0.26721421,0.26721421 0 0 0 -0.107487,0.206693 v 1.008724 a 0.26721421,0.26721421 0 0 0 0.264584,0.272865 h 2.778125 c -0.0082,0.04821 -0.04961,0.08157 -0.04961,0.132291 0,0.503026 0.418158,0.909558 0.917774,0.909479 0.499615,0 0.917773,-0.406506 0.917773,-0.909479 0,-0.05075 -0.04146,-0.08403 -0.04961,-0.132291 H 3.638015 A 0.26721421,0.26721421 0 0 0 3.910867,3.2080733 V 2.1993493 A 0.26721421,0.26721421 0 0 0 3.80338,1.9926563 c 0,0 -1.116211,-0.893471 -1.116211,-1.992656 0,-0.620765 -0.137869,-1.36443 -0.479557,-2.017448 -0.288859,-0.552079 -0.746025,-1.026372 -1.364258,-1.265052 0.04075,-0.101124 0.07441,-0.205634 0.07441,-0.322448 0,-0.503052 -0.414843,-0.917773 -0.917773,-0.917773 z" />
      <path
         id="path11498"
         style="fill:#757575;fill-opacity:1;stroke:none;stroke-width:0.196304"
         d="m -0.024805,-3.9852999 c 0.673513,1.1e-5 1.248672,0.254257 1.72806,0.777214 0.483343,0.519009 0.727599,1.152906 0.727604,1.901692 -5e-6,0.756719 -0.244261,1.403535 -0.727604,1.926498 -0.479388,0.52297 -1.054547,0.777218 -1.72806,0.777213 -0.669557,5e-6 -1.244716,-0.254243 -1.72806,-0.777213 -0.479388,-0.522949 -0.719336,-1.169766 -0.719336,-1.926485 0,-0.748786 0.239948,-1.382683 0.719336,-1.901692 0.483344,-0.522957 1.058503,-0.777203 1.72806,-0.777214 z m 0,-0.520893 c -0.542777,1e-5 -1.045244,0.14901 -1.504818,0.438216 -0.455615,0.289224 -0.809426,0.674555 -1.07487,1.16582 -0.261482,0.491276 -0.396875,1.021305 -0.396875,1.595768 0,0.578438 0.135393,1.117076 0.396875,1.612305 0.265444,0.491276 0.619255,0.889182 1.07487,1.182357 0.459574,0.289218 0.962041,0.42995 1.504818,0.429948 0.348639,2e-6 0.692806,-0.06373 1.033529,-0.198438 l -1.827279,2.711979 h 0.636654 c 0.269401,-0.404109 0.568436,-0.834575 0.901237,-1.298112 0.33279,-0.467497 0.595307,-0.834226 0.785481,-1.099674 0.194128,-0.269404 0.393597,-0.563785 0.603581,-0.884701 0.209973,-0.324868 0.372581,-0.609605 0.479557,-0.843359 0.106966,-0.233744 0.188958,-0.483341 0.256315,-0.760677 0.07131,-0.277326 0.107482,-0.56637 0.107487,-0.851628 -5e-6,-0.578427 -0.127129,-1.108453 -0.388606,-1.595768 -0.261488,-0.491265 -0.623568,-0.876596 -1.083138,-1.16582 -0.455618,-0.289206 -0.958086,-0.438206 -1.504818,-0.438216 z" />
      <path
         id="path11508"
         style="fill:#828282;fill-opacity:1;stroke:none;stroke-width:0.741935"
         d="m 0.03125,-17.09375 c -1.6022287,3e-5 -3.0924586,0.46285 -4.5,1.40625 -1.4075603,0.928399 -2.6041706,2.1778 -3.5625,3.75 -0.9583408,1.557298 -1.6959591,3.3871487 -2.25,5.46875 C -10.83528,-4.4022517 -11.125,-2.2461014 -11.125,0 c 0,2.9947994 0.477862,5.7844022 1.40625,8.375 0.9283805,2.590503 2.2467368,4.678847 3.96875,6.28125 1.7369688,1.602198 3.6549294,2.40625 5.78125,2.40625 2.1113083,0 4.0429613,-0.80415 5.75,-2.40625 C 7.5032406,13.053847 8.8215893,10.965503 9.75,8.375 10.678362,5.7844022 11.12497,2.9947994 11.125,0 c -3e-5,-3.0098003 -0.446638,-5.8155502 -1.375,-8.40625 -0.9284107,-2.6055 -2.2467594,-4.69395 -3.96875,-6.28125 -1.7070387,-1.602198 -3.6386917,-2.40622 -5.75,-2.40625 z m 0,2 c 1.1380006,0 2.2818775,0.392649 3.375,1.15625 1.1080479,0.7486 2.06769,1.759803 2.90625,3.0625 0.8534891,1.3026028 1.5221212,2.9106984 2.03125,4.8125 C 8.8678193,-4.1608005 9.1562198,-2.1414009 9.15625,0 9.1562198,1.7068989 8.9693906,3.3337511 8.625,4.90625 8.2955386,6.478352 7.8339597,7.8810508 7.25,9.09375 6.6659874,10.306653 5.9823998,11.36775 5.21875,12.28125 4.4550587,13.179549 3.6484202,13.864752 2.75,14.34375 1.8665203,14.822949 0.94464087,15.0625 0.03125,15.0625 c -1.1530091,0 -2.2669294,-0.361286 -3.375,-1.125 -1.1080781,-0.763601 -2.083992,-1.822201 -2.9375,-3.125 C -7.1347731,9.5098027 -7.8196618,7.9180506 -8.34375,6.03125 -8.8528637,4.1294522 -9.125,2.1263017 -9.125,0 c 0,-2.1412989 0.272125,-4.1608005 0.78125,-6.0625 0.5240882,-1.9017033 1.2089769,-3.5097989 2.0625,-4.8125 0.853508,-1.302697 1.8294219,-2.313802 2.9375,-3.0625 1.1080706,-0.763601 2.2219909,-1.15625 3.375,-1.15625 z"
         transform="scale(0.26458333)" />
      <path
         style="fill:#595959;fill-opacity:1;stroke:none;stroke-width:0.196304"
         d="m 0.44648398,-4.5557909 c -0.610131,10e-6 -1.189939,0.126061 -1.74459598,0.363815 -0.554662,0.237728 -1.030258,0.555043 -1.430403,0.959115 -0.400148,0.404071 -0.721405,0.888285 -0.959115,1.446927 -0.237712,0.558641 -0.355534,1.138766 -0.355534,1.752864 0,0.614098 0.117822,1.202505 0.355534,1.761146 0.23771,0.558615 0.558967,1.042829 0.959115,1.446927 0.400145,0.404072 0.875741,0.72136 1.430403,0.959115 0.55465698,0.237701 1.13446498,0.355547 1.74459598,0.35552 C 1.179422,4.4896651 1.8631,4.3266811 2.497005,4.0018261 3.130894,3.6730021 3.655928,3.2288991 4.067969,2.6623731 L 3.638021,2.3729721 c -0.368461,0.499215 -0.830448,0.893127 -1.389062,1.18237 -0.554669,0.289216 -1.156699,0.429947 -1.80247502,0.429947 -0.538815,0 -1.05489,-0.104245 -1.54615798,-0.314192 -0.491273,-0.213969 -0.912437,-0.495089 -1.265039,-0.851615 -0.352608,-0.356605 -0.633384,-0.782029 -0.84336,-1.273333 -0.206017,-0.491279 -0.305924,-1.007375 -0.305924,-1.546146 0,-0.725064 0.176559,-1.390782 0.529167,-2.000911 0.352604,-0.614098 0.832506,-1.09863 1.438671,-1.455209 0.61012398,-0.356552 1.27157998,-0.537421 1.99264298,-0.537421 0.64577602,0 1.24780602,0.14896 1.80247502,0.438203 0.558614,0.28522 1.020601,0.670586 1.389062,1.165807 l 0.429948,-0.314167 c -0.416004,-0.570521 -0.94534,-1.01891 -1.579232,-1.347734 -0.633905,-0.332793 -1.313276,-0.504352 -2.04225302,-0.504362 z"
         id="path11514" />
      <path
         style="fill:#5f5f5f;fill-opacity:1;stroke:none;stroke-width:0.196304"
         d="m 0.016536,-4.514453 c -0.586359,1.06e-5 -1.088824,0.2037874 -1.504818,0.6118489 -0.415996,0.4080801 -0.620117,0.897628 -0.620117,1.480013 h 0.529167 c -3e-6,-0.431834 0.153993,-0.7946046 0.463021,-1.0996744 0.312983,-0.3090175 0.689014,-0.4630129 1.132747,-0.4630209 0.443725,8e-6 0.823717,0.1540034 1.132747,0.4630209 0.312981,0.3050698 0.471284,0.6678404 0.47129,1.0996744 -6e-6,0.435811 -0.158309,0.797547 -0.47129,1.07487 -0.30903,0.273375 -0.689022,0.40514804 -1.132747,0.40514304 v 0.537435 c 0.602197,5e-6 1.118275,0.213085 1.546159,0.644922 0.431837,0.4278874 0.653185,0.94792036 0.65319,1.54615936 -5e-6,0.606165 -0.221353,1.126892 -0.65319,1.562695 -0.427884,0.431845 -0.943962,0.644922 -1.546159,0.644922 -0.606168,0 -1.11828,-0.213077 -1.546159,-0.644922 -0.427881,-0.435803 -0.644922,-0.95653 -0.644922,-1.562695 h -0.553971 c 0,0.760677 0.262858,1.408184 0.79375,1.943033 0.53485,0.53089 1.182354,0.79375 1.943034,0.79375 0.491265,0 0.93999,-0.122129 1.355989,-0.363802 0.419952,-0.245634 0.754814,-0.580495 1.000456,-1.000455 0.245629,-0.419955 0.372063,-0.873332 0.37207,-1.372526 -7e-6,-0.53485 -0.145044,-1.03231696 -0.438216,-1.48001336 -0.293184,-0.447686 -0.68644,-0.778243 -1.16582,-0.992188 0.312984,-0.18224 0.56189,-0.42219004 0.744141,-0.71933604 0.182239,-0.301093 0.272846,-0.640609 0.272851,-1.016992 -5e-6,-0.582385 -0.208433,-1.0719329 -0.628385,-1.480013 C 1.105355,-4.3106656 0.602887,-4.5144424 0.016536,-4.514453 Z"
         id="path11303" />
      <path
         style="fill:#535353;fill-opacity:1;stroke:none;stroke-width:0.196304"
         d="m 0.27285098,-4.4400401 -1.78593698,1.0666016 0.264584,0.4630213 0.96738198,-0.5705083 0.02479,7.9126957 h 0.529166 v -8.8718093 z"
         id="path11301" />
    </g>
  </g>
</svg>
