<?xml version="1.0" encoding="UTF-8" standalone="no"?>
<svg
   xmlns:dc="http://purl.org/dc/elements/1.1/"
   xmlns:cc="http://creativecommons.org/ns#"
   xmlns:rdf="http://www.w3.org/1999/02/22-rdf-syntax-ns#"
   xmlns:svg="http://www.w3.org/2000/svg"
   xmlns="http://www.w3.org/2000/svg"
   xmlns:sodipodi="http://sodipodi.sourceforge.net/DTD/sodipodi-0.dtd"
   xmlns:inkscape="http://www.inkscape.org/namespaces/inkscape"
   width="18mm"
   height="18mm"
   viewBox="0 0 18 18"
   version="1.1"
   id="svg10654"
   inkscape:version="1.0.2 (e86c870879, 2021-01-15)"
   sodipodi:docname="g2.svg">
  <defs
     id="defs10648">
    <linearGradient
       id="linearGradient3778">
      <stop
         style="stop-color:#e9b515;stop-opacity:1;"
         offset="0"
         id="stop3780" />
      <stop
         id="stop3786"
         offset="0.80930263"
         style="stop-color:#eec64b;stop-opacity:1;" />
      <stop
         style="stop-color:#ffffff;stop-opacity:1;"
         offset="1"
         id="stop3782" />
    </linearGradient>
  </defs>
  <sodipodi:namedview
     id="base"
     pagecolor="#ffffff"
     bordercolor="#666666"
     borderopacity="1.0"
     inkscape:pageopacity="0.0"
     inkscape:pageshadow="2"
     inkscape:zoom="5.6"
     inkscape:cx="14.413334"
     inkscape:cy="17.303872"
     inkscape:document-units="mm"
     inkscape:current-layer="layer1"
     inkscape:document-rotation="0"
     showgrid="false"
     inkscape:snap-smooth-nodes="true"
     inkscape:snap-page="true"
     inkscape:snap-object-midpoints="true"
     inkscape:window-width="1364"
     inkscape:window-height="750"
     inkscape:window-x="1"
     inkscape:window-y="17"
     inkscape:window-maximized="0" />
  <metadata
     id="metadata10651">
    <rdf:RDF>
      <cc:Work
         rdf:about="">
        <dc:format>image/svg+xml</dc:format>
        <dc:type
           rdf:resource="http://purl.org/dc/dcmitype/StillImage" />
        <dc:title></dc:title>
      </cc:Work>
    </rdf:RDF>
  </metadata>
  <g
     inkscape:label="Layer 1"
     inkscape:groupmode="layer"
     id="layer1">
    <path
       style="fill:#7b7b7b;fill-opacity:1;stroke:none;stroke-width:0.264584"
       d="M 9.0111437,2.9153022 C 8.3756922,2.9153165 7.7955016,3.0861908 7.2615145,3.4279323 6.7275233,3.7696989 6.3007975,4.2277639 5.9910833,4.8098051 5.6867077,5.3918611 5.5341729,6.0208106 5.5341729,6.7043081 H 6.247398 c 0,-0.8650564 0.2688495,-1.5915104 0.8135222,-2.1842505 0.5500061,-0.5980567 1.2089016,-0.8915201 1.9725112,-0.8915309 0.7529199,1.08e-5 1.3939376,0.2876686 1.9279356,0.8803867 0.539323,0.5927391 0.813514,1.3249996 0.813522,2.1953947 -8e-6,0.4378777 -0.127935,0.8583374 -0.3789,1.2481436 C 11.150347,8.3369326 10.83274,8.6733459 10.437593,8.977712 10.042434,9.2820943 9.6031696,9.5925 9.1225847,9.8915306 8.6473318,10.190569 8.1655796,10.501908 7.684992,10.827639 7.204399,11.148037 6.7651317,11.478182 6.3699841,11.83061 c -0.3951556,0.352437 -0.7185678,0.767555 -0.9695398,1.248144 -0.2456386,0.480591 -0.367757,0.999027 -0.367757,1.549035 v 0.345468 H 12.833581 V 14.248888 H 5.7459123 c 0.04805,-0.347091 0.1639092,-0.676772 0.3454681,-0.991828 0.1815508,-0.315049 0.4016522,-0.595977 0.6686484,-0.846955 0.2723337,-0.256314 0.5774006,-0.50636 0.913818,-0.746656 C 8.0155962,11.417818 8.3747649,11.185646 8.73254,10.961367 9.0956497,10.737095 9.455743,10.511195 9.8135208,10.281575 10.171289,10.051964 10.507236,9.8023808 10.827637,9.546062 11.148025,9.289754 11.42895,9.0325092 11.674592,8.7548288 11.920219,8.4771604 12.109901,8.1658193 12.254087,7.8187218 12.398255,7.4662962 12.476963,7.0887863 12.476969,6.7043081 12.476963,6.0208106 12.324425,5.3918611 12.02006,4.8098051 11.715677,4.2277639 11.294757,3.7696989 10.760773,3.4279323 10.226778,3.0861908 9.6412457,2.9153165 9.0111437,2.9153022 Z"
       id="path11305" />
  </g>
</svg>
